<?xml version="1.0" encoding="UTF-8"?>
<!DOCTYPE svg PUBLIC "-//W3C//DTD SVG 1.1//EN" "http://www.w3.org/Graphics/SVG/1.1/DTD/svg11.dtd">
<svg xmlns="http://www.w3.org/2000/svg" version="1.1" width="819px" height="819px" style="shape-rendering:geometricPrecision; text-rendering:geometricPrecision; image-rendering:optimizeQuality; fill-rule:evenodd; clip-rule:evenodd" xmlns:xlink="http://www.w3.org/1999/xlink">
<g><path style="opacity:0.007" fill="#0d0407" d="M 379.5,175.5 C 372.833,175.5 366.167,175.5 359.5,175.5C 357.5,175.5 355.5,175.5 353.5,175.5C 357.921,174.088 362.588,173.421 367.5,173.5C 371.777,173.337 375.777,174.003 379.5,175.5 Z"/></g>
<g><path style="opacity:0.029" fill="#1a1026" d="M 466.5,175.5 C 457.167,175.5 447.833,175.5 438.5,175.5C 439.263,174.732 440.263,174.232 441.5,174C 444.833,173.833 448.167,173.667 451.5,173.5C 456.755,173.334 461.755,174.001 466.5,175.5 Z"/></g>
<g><path style="opacity:0.047" fill="#190404" d="M 352.5,175.5 C 348.383,177.204 344.049,178.537 339.5,179.5C 343.272,176.8 347.605,175.466 352.5,175.5 Z"/></g>
<g><path style="opacity:0.067" fill="#110919" d="M 466.5,175.5 C 471.079,175.47 475.079,176.804 478.5,179.5C 474.225,178.681 470.225,177.347 466.5,175.5 Z"/></g>
<g><path style="opacity:0.972" fill="#ec7d32" d="M 438.5,175.5 C 447.833,175.5 457.167,175.5 466.5,175.5C 470.225,177.347 474.225,178.681 478.5,179.5C 478.833,179.5 479.167,179.5 479.5,179.5C 481.181,181.008 483.181,182.008 485.5,182.5C 488.546,184.858 491.879,186.858 495.5,188.5C 497.194,190.861 499.194,192.861 501.5,194.5C 497.984,193.043 494.651,191.376 491.5,189.5C 491.649,190.552 491.483,191.552 491,192.5C 489,191.167 487,189.833 485,188.5C 484.474,186.45 483.641,184.617 482.5,183C 468.363,176.874 453.697,175.207 438.5,178C 438.018,179.46 436.851,180.96 435,182.5C 433.612,181.446 432.112,181.28 430.5,182C 426.971,184.331 424.971,187.497 424.5,191.5C 423.5,191.5 422.5,191.5 421.5,191.5C 419.62,211.446 419.12,231.446 420,251.5C 434.265,252.159 448.431,252.825 462.5,253.5C 447.833,253.5 433.167,253.5 418.5,253.5C 418.227,233.144 418.56,212.811 419.5,192.5C 424.267,185.066 430.6,179.399 438.5,175.5 Z"/></g>
<g><path style="opacity:0.067" fill="#171113" d="M 379.5,175.5 C 388.918,177.257 395.252,182.591 398.5,191.5C 393.976,183.973 387.643,178.64 379.5,175.5 Z"/></g>
<g><path style="opacity:0.067" fill="#140e22" d="M 479.5,179.5 C 482.089,179.461 484.089,180.461 485.5,182.5C 483.181,182.008 481.181,181.008 479.5,179.5 Z"/></g>
<g><path style="opacity:0.035" fill="#1e191f" d="M 438.5,175.5 C 430.6,179.399 424.267,185.066 419.5,192.5C 422.308,183.032 428.641,177.365 438.5,175.5 Z"/></g>
<g><path style="opacity:0.11" fill="#1f151c" d="M 485.5,182.5 C 489.598,183.272 492.931,185.272 495.5,188.5C 491.879,186.858 488.546,184.858 485.5,182.5 Z"/></g>
<g><path style="opacity:0.059" fill="#1a1119" d="M 495.5,188.5 C 502.167,191.833 507.167,196.833 510.5,203.5C 507.263,200.651 504.263,197.651 501.5,194.5C 499.194,192.861 497.194,190.861 495.5,188.5 Z"/></g>
<g><path style="opacity:0.043" fill="#161116" d="M 338.5,179.5 C 333.285,182.751 327.952,185.918 322.5,189C 318.666,191.668 315.333,194.835 312.5,198.5C 306.576,204.932 302.076,212.265 299,220.5C 297.698,221.085 296.531,221.751 295.5,222.5C 293.236,223.219 290.903,223.552 288.5,223.5C 291.336,222.025 294.336,220.691 297.5,219.5C 305.308,200.023 318.975,186.69 338.5,179.5 Z"/></g>
<g><path style="opacity:0.996" fill="#f77430" d="M 501.5,194.5 C 504.263,197.651 507.263,200.651 510.5,203.5C 513.418,209.063 516.251,214.729 519,220.5C 522.637,222.201 526.47,223.201 530.5,223.5C 533.088,225.625 536.088,226.958 539.5,227.5C 562.838,242.354 572.171,263.521 567.5,291C 572.875,296.187 577.208,302.021 580.5,308.5C 582.291,314.242 583.625,320.075 584.5,326C 583.551,326.617 582.718,326.451 582,325.5C 581.047,327.592 579.714,327.925 578,326.5C 576.921,328.394 575.587,328.727 574,327.5C 572.302,328.733 570.302,329.4 568,329.5C 565.698,329.4 563.698,328.733 562,327.5C 558.751,328.147 555.418,328.481 552,328.5C 548.397,328.45 545.064,327.783 542,326.5C 541.085,327.328 540.419,328.328 540,329.5C 539.431,325.639 538.598,325.639 537.5,329.5C 536.575,328.359 535.741,328.359 535,329.5C 533.688,327.342 532.022,327.009 530,328.5C 527.011,325.345 523.844,322.345 520.5,319.5C 519.41,320.391 519.41,321.391 520.5,322.5C 519.478,323.354 518.645,324.354 518,325.5C 515.731,323.731 513.398,323.065 511,323.5C 509.363,324.833 508.529,326.166 508.5,327.5C 507.208,324.998 506.541,322.331 506.5,319.5C 507.767,312.452 507.767,306.785 506.5,302.5C 502.399,276.73 487.732,260.397 462.5,253.5C 448.431,252.825 434.265,252.159 420,251.5C 419.12,231.446 419.62,211.446 421.5,191.5C 422.5,191.5 423.5,191.5 424.5,191.5C 424.971,187.497 426.971,184.331 430.5,182C 432.112,181.28 433.612,181.446 435,182.5C 436.851,180.96 438.018,179.46 438.5,178C 453.697,175.207 468.363,176.874 482.5,183C 483.641,184.617 484.474,186.45 485,188.5C 487,189.833 489,191.167 491,192.5C 491.483,191.552 491.649,190.552 491.5,189.5C 494.651,191.376 497.984,193.043 501.5,194.5 Z"/></g>
<g><path style="opacity:0.047" fill="#120e21" d="M 510.5,203.5 C 514.641,207.759 517.808,212.759 520,218.5C 523.576,220.095 527.076,221.761 530.5,223.5C 526.47,223.201 522.637,222.201 519,220.5C 516.251,214.729 513.418,209.063 510.5,203.5 Z"/></g>
<g><path style="opacity:0.195" fill="#1c0f12" d="M 398.5,191.5 C 399.793,192.842 400.626,194.509 401,196.5C 401.667,215.833 401.667,235.167 401,254.5C 400.617,255.056 400.117,255.389 399.5,255.5C 399.5,254.833 399.5,254.167 399.5,253.5C 399.774,232.811 399.441,212.144 398.5,191.5 Z"/></g>
<g><path style="opacity:0.043" fill="#1c1517" d="M 288.5,223.5 C 285.912,225.625 282.912,226.958 279.5,227.5C 281.898,225.026 284.898,223.692 288.5,223.5 Z"/></g>
<g><path style="opacity:0.047" fill="#130920" d="M 530.5,223.5 C 534.102,223.692 537.102,225.026 539.5,227.5C 536.088,226.958 533.088,225.625 530.5,223.5 Z"/></g>
<g><path style="opacity:0.996" fill="#0b95af" d="M 352.5,175.5 C 352.833,175.5 353.167,175.5 353.5,175.5C 355.5,175.5 357.5,175.5 359.5,175.5C 358.391,176.29 357.058,176.79 355.5,177C 355.306,178.763 355.306,180.597 355.5,182.5C 351.986,183.993 352.32,185.493 356.5,187C 357.784,187.684 358.951,187.517 360,186.5C 359.862,188.49 359.362,190.49 358.5,192.5C 358.556,193.737 359.056,194.737 360,195.5C 361.833,194.333 363.667,193.167 365.5,192C 364.07,190.326 362.736,189.326 361.5,189C 362,187.5 362.5,186 363,184.5C 364.073,185.28 365.24,185.113 366.5,184C 364.595,183.174 364.261,182.007 365.5,180.5C 366.851,183.414 368.684,183.081 371,179.5C 372.388,180.554 373.888,180.72 375.5,180C 372.456,179.641 372.122,178.974 374.5,178C 376.971,177.294 379.305,177.627 381.5,179C 380.216,179.684 379.049,179.517 378,178.5C 376.475,181.77 374.142,182.77 371,181.5C 370.558,183.679 369.558,184.345 368,183.5C 367.833,186.333 366.333,187.833 363.5,188C 365.487,189.319 366.654,191.152 367,193.5C 367.199,191.598 368.033,190.098 369.5,189C 368.549,188.282 368.383,187.449 369,186.5C 370.117,187.949 370.784,189.616 371,191.5C 373.344,186.992 375.511,186.826 377.5,191C 374.833,191.667 374.833,192.333 377.5,193C 377.043,193.414 376.709,193.914 376.5,194.5C 377.522,195.354 378.355,196.354 379,197.5C 379.667,196.167 380.333,194.833 381,193.5C 381.333,193.833 381.667,194.167 382,194.5C 383.236,190.197 382.402,189.197 379.5,191.5C 375.376,188.96 375.542,186.96 380,185.5C 381.225,185.862 382.391,186.362 383.5,187C 383.719,190.029 383.386,193.196 382.5,196.5C 383.364,198.197 384.697,199.363 386.5,200C 385.167,200.667 383.833,201.333 382.5,202C 384.809,202.756 386.809,202.256 388.5,200.5C 389.506,200.938 389.506,201.604 388.5,202.5C 390.078,203.072 391.578,203.406 393,203.5C 393.667,202.5 393.667,201.5 393,200.5C 392.333,199.167 391.667,199.167 391,200.5C 390.417,198.998 389.584,197.665 388.5,196.5C 387.808,197.025 387.308,197.692 387,198.5C 386.598,197.128 386.098,195.795 385.5,194.5C 386.788,191.966 386.788,189.466 385.5,187C 386.126,186.25 386.626,185.416 387,184.5C 387.511,186.878 388.178,189.212 389,191.5C 389.494,189.866 389.66,188.199 389.5,186.5C 393.207,186.998 395.541,189.164 396.5,193C 396.095,193.945 395.428,194.612 394.5,195C 395.416,195.374 396.25,195.874 397,196.5C 397.5,215.164 397.667,233.83 397.5,252.5C 390.735,251.793 384.068,251.626 377.5,252C 376.033,250.902 375.199,249.402 375,247.5C 374.667,248.167 374.333,248.833 374,249.5C 371.987,246.883 369.487,246.216 366.5,247.5C 367.879,248.863 367.713,249.863 366,250.5C 365.975,248.989 364.808,247.989 362.5,247.5C 360.971,247.529 359.804,248.196 359,249.5C 358.5,249 358,248.5 357.5,248C 358.956,247.577 359.456,246.744 359,245.5C 355.793,246.255 354.293,248.255 354.5,251.5C 349.65,251.298 344.65,251.132 339.5,251C 340.536,249.383 341.703,249.216 343,250.5C 343.167,250 343.333,249.5 343.5,249C 342.445,246.68 341.112,244.513 339.5,242.5C 341.618,240.033 343.452,240.366 345,243.5C 346.762,243.056 346.595,242.556 344.5,242C 345.126,241.25 345.626,240.416 346,239.5C 346.333,239.833 346.667,240.167 347,240.5C 346.852,239.175 347.018,238.008 347.5,237C 346.833,236.667 346.167,236.333 345.5,236C 348.468,234.503 348.801,232.837 346.5,231C 347.841,228.55 347.008,227.05 344,226.5C 341.835,227.583 339.835,228.916 338,230.5C 336.299,229.476 334.799,228.142 333.5,226.5C 333.667,226.167 333.833,225.833 334,225.5C 335.067,226.191 336.234,226.691 337.5,227C 336.304,227.654 336.304,228.154 337.5,228.5C 337.5,226.5 337.5,224.5 337.5,222.5C 342.25,227.137 343.417,226.47 341,220.5C 340.667,221.5 340.333,222.5 340,223.5C 336.87,221.171 337.37,219.337 341.5,218C 339.777,217.477 338.444,216.477 337.5,215C 337.833,214.5 338.167,214 338.5,213.5C 339.696,213.846 339.696,214.346 338.5,215C 340.167,215.667 341.833,215.667 343.5,215C 341.234,213.486 340.068,211.319 340,208.5C 339.333,211.167 338.667,211.167 338,208.5C 337.316,209.784 337.483,210.951 338.5,212C 336.553,212.991 334.553,213.325 332.5,213C 331.483,211.951 331.316,210.784 332,209.5C 332.776,212.649 334.276,213.149 336.5,211C 335.638,208.266 334.805,208.099 334,210.5C 332.887,209.24 332.72,208.073 333.5,207C 332.167,206.667 330.833,206.333 329.5,206C 331.817,204.287 333.817,204.787 335.5,207.5C 335.833,207.167 336.167,206.833 336.5,206.5C 334.73,205.18 334.397,203.68 335.5,202C 331.639,200.657 331.639,199.157 335.5,197.5C 336.795,198.098 338.128,198.598 339.5,199C 339.167,200.667 338.833,202.333 338.5,204C 339,204.5 339.5,205 340,205.5C 342.042,203.889 344.209,202.389 346.5,201C 344.892,200.342 343.725,200.842 343,202.5C 341.56,201.07 341.226,199.403 342,197.5C 342.833,200 344,200.167 345.5,198C 343.054,196.517 343.388,195.351 346.5,194.5C 350.359,195.6 351.359,197.934 349.5,201.5C 350.776,202.645 352.109,202.645 353.5,201.5C 354.521,200.998 354.688,200.332 354,199.5C 353.282,200.451 352.449,200.617 351.5,200C 352.711,198.887 352.711,197.72 351.5,196.5C 353.865,195.915 355.865,194.748 357.5,193C 354.833,192.333 354.833,191.667 357.5,191C 356.333,190.5 355.5,189.667 355,188.5C 354.667,189.167 354.333,189.833 354,190.5C 353.751,189.376 353.251,188.376 352.5,187.5C 352.15,189.268 351.317,191.268 350,193.5C 349.213,192.289 348.546,191.289 348,190.5C 347.513,191.931 346.179,193.265 344,194.5C 341.833,193 342,191.833 344.5,191C 343.128,190.598 341.795,190.098 340.5,189.5C 340.835,190.664 340.835,191.997 340.5,193.5C 338.275,192.899 336.109,192.566 334,192.5C 333.689,193.742 334.189,194.742 335.5,195.5C 334.726,196.711 333.893,196.711 333,195.5C 331.937,196.438 330.77,197.438 329.5,198.5C 331.124,199.869 331.624,201.536 331,203.5C 330,202.167 329,202.167 328,203.5C 325.621,198.495 322.621,198.161 319,202.5C 317.615,201.449 316.615,200.116 316,198.5C 315.363,200.303 314.197,201.636 312.5,202.5C 312.93,201.288 312.93,199.955 312.5,198.5C 315.333,194.835 318.666,191.668 322.5,189C 327.952,185.918 333.285,182.751 338.5,179.5C 338.833,179.5 339.167,179.5 339.5,179.5C 344.049,178.537 348.383,177.204 352.5,175.5 Z"/></g>
<g><path style="opacity:0.055" fill="#130b0c" d="M 279.5,227.5 C 275.742,230.557 271.742,233.39 267.5,236C 263.365,240.478 259.365,244.978 255.5,249.5C 260.653,239.012 268.653,231.679 279.5,227.5 Z"/></g>
<g><path style="opacity:0.024" fill="#1c1319" d="M 255.5,249.5 C 255.539,252.089 254.539,254.089 252.5,255.5C 252.461,252.911 253.461,250.911 255.5,249.5 Z"/></g>
<g><path style="opacity:0.439" fill="#13323a" d="M 327.5,254.5 C 351.328,253.502 375.328,253.169 399.5,253.5C 399.5,254.167 399.5,254.833 399.5,255.5C 380.173,254.414 360.839,254.414 341.5,255.5C 337.03,254.514 332.363,254.181 327.5,254.5 Z"/></g>
<g><path style="opacity:0.004" fill="#0a0a0b" d="M 399.5,255.5 C 380.167,256.833 360.833,256.833 341.5,255.5C 360.839,254.414 380.173,254.414 399.5,255.5 Z"/></g>
<g><path style="opacity:0.188" fill="#14131e" d="M 539.5,227.5 C 556.228,236.09 566.395,249.757 570,268.5C 570.333,276.5 570.667,284.5 571,292.5C 581.859,303.389 587.692,316.556 588.5,332C 600.514,332.833 612.514,332.666 624.5,331.5C 631.937,318.796 642.603,315.296 656.5,321C 657.381,321.708 658.047,322.542 658.5,323.5C 664.859,327.211 667.859,332.878 667.5,340.5C 665.468,357.676 655.801,364.843 638.5,362C 633.743,360.391 630.077,357.558 627.5,353.5C 627.123,351.742 626.456,350.075 625.5,348.5C 613.637,347.109 601.971,347.443 590.5,349.5C 587.769,368.13 579.769,384.297 566.5,398C 560.545,399.102 554.545,399.936 548.5,400.5C 544.132,399.483 540.132,397.65 536.5,395C 526.552,395.044 523.052,399.877 526,409.5C 532.608,415.155 538.775,414.655 544.5,408C 559.833,407.667 575.167,407.333 590.5,407C 597.584,393.92 607.918,390.087 621.5,395.5C 608.572,391.703 599.238,395.703 593.5,407.5C 577.735,408.152 562.069,408.819 546.5,409.5C 541.788,415.323 535.788,416.989 528.5,414.5C 520.255,407.016 520.588,399.849 529.5,393C 535.124,392.188 540.124,393.522 544.5,397C 551.167,397.667 557.833,397.667 564.5,397C 573.986,387.865 580.82,377.032 585,364.5C 586.029,358.877 586.529,353.21 586.5,347.5C 572.641,347.21 558.807,347.543 545,348.5C 538.982,348.481 535.482,345.481 534.5,339.5C 534.728,336.433 536.061,334.1 538.5,332.5C 539.167,332.833 539.833,333.167 540.5,333.5C 535.296,337.631 535.296,341.798 540.5,346C 555.156,345.845 569.822,345.679 584.5,345.5C 584.789,341.894 584.456,338.394 583.5,335C 577.829,334.469 572.162,333.969 566.5,333.5C 572.825,333.441 579.158,333.107 585.5,332.5C 586.833,329.833 586.833,327.167 585.5,324.5C 584.93,318.727 583.264,313.393 580.5,308.5C 577.208,302.021 572.875,296.187 567.5,291C 572.171,263.521 562.838,242.354 539.5,227.5 Z M 540.5,333.5 C 540.833,333.5 541.167,333.5 541.5,333.5C 548.833,333.5 556.167,333.5 563.5,333.5C 564.5,333.5 565.5,333.5 566.5,333.5C 572.162,333.969 577.829,334.469 583.5,335C 584.456,338.394 584.789,341.894 584.5,345.5C 569.822,345.679 555.156,345.845 540.5,346C 535.296,341.798 535.296,337.631 540.5,333.5 Z M 642.5,334.5 C 648.82,334.32 651.32,337.32 650,343.5C 646.667,347.5 643.333,347.5 640,343.5C 638.927,339.9 639.76,336.9 642.5,334.5 Z"/></g>
<g><path style="opacity:0.035" fill="#1c1c1c" d="M 329.5,256.5 C 330.349,291.375 330.349,326.041 329.5,360.5C 328.167,325.833 328.167,291.167 329.5,256.5 Z"/></g>
<g><path style="opacity:0.259" fill="#1b1722" d="M 419.5,192.5 C 418.56,212.811 418.227,233.144 418.5,253.5C 433.167,253.5 447.833,253.5 462.5,253.5C 487.732,260.397 502.399,276.73 506.5,302.5C 506.824,314.567 504.157,325.901 498.5,336.5C 501.952,341.273 504.952,346.273 507.5,351.5C 511.09,360.106 512.423,369.106 511.5,378.5C 510.265,387.543 507.265,395.876 502.5,403.5C 491.78,416.692 478.113,425.026 461.5,428.5C 459.833,428.5 458.167,428.5 456.5,428.5C 456.5,428.167 456.5,427.833 456.5,427.5C 479.043,424.317 495.543,412.65 506,392.5C 513.021,373.034 510.021,355.367 497,339.5C 496.833,338.5 496.667,337.5 496.5,336.5C 504.883,319.619 505.717,302.286 499,284.5C 490.846,268.835 478.013,259.668 460.5,257C 446.5,256.667 432.5,256.333 418.5,256C 418,255.5 417.5,255 417,254.5C 416.333,235.167 416.333,215.833 417,196.5C 417.2,194.68 418.034,193.347 419.5,192.5 Z"/></g>
<g><path style="opacity:0.329" fill="#180204" d="M 372.5,273.5 C 371.167,318.167 371.167,362.833 372.5,407.5C 372.5,407.833 372.5,408.167 372.5,408.5C 371.833,408.833 371.167,409.167 370.5,409.5C 370.5,364.167 370.5,318.833 370.5,273.5C 362.684,272.508 354.684,272.174 346.5,272.5C 346.5,318.167 346.5,363.833 346.5,409.5C 346.5,409.833 346.5,410.167 346.5,410.5C 345.107,408.489 344.44,406.155 344.5,403.5C 345.447,359.469 345.78,315.469 345.5,271.5C 352.494,271.07 359.494,270.737 366.5,270.5C 369.102,270.467 371.102,271.467 372.5,273.5 Z"/></g>
<g><path style="opacity:0.996" fill="#0b95af" d="M 295.5,222.5 C 297.701,222.858 299.035,224.192 299.5,226.5C 299.64,227.903 299.64,229.403 299.5,231C 295.894,231.136 292.728,229.97 290,227.5C 289.055,227.905 288.388,228.572 288,229.5C 286.796,228.529 286.296,227.529 286.5,226.5C 285.218,228.179 284.218,230.013 283.5,232C 285.027,233.368 286.527,233.868 288,233.5C 289.615,231.095 290.281,231.095 290,233.5C 288.833,234.667 287.667,235.833 286.5,237C 288.108,237.658 289.275,237.158 290,235.5C 291.32,237.817 292.986,239.817 295,241.5C 295.75,240.874 296.584,240.374 297.5,240C 295.21,239.21 294.877,237.876 296.5,236C 293.518,231.884 294.185,230.884 298.5,233C 297.483,234.049 297.316,235.216 298,236.5C 298.556,234.405 299.056,234.238 299.5,236C 298.541,238.12 298.374,240.287 299,242.5C 300.284,241.428 300.617,240.095 300,238.5C 302.447,238.961 304.947,239.294 307.5,239.5C 305.923,241.449 304.423,243.449 303,245.5C 302.333,246.5 302.333,247.5 303,248.5C 303.654,247.304 304.154,247.304 304.5,248.5C 303.469,249.7 302.635,251.034 302,252.5C 299.943,249.883 297.943,247.216 296,244.5C 295.667,244.833 295.333,245.167 295,245.5C 294.149,242.388 292.983,242.054 291.5,244.5C 292.818,245.038 294.484,245.871 296.5,247C 294.314,247.604 294.148,248.77 296,250.5C 297.676,250.295 299.176,251.128 300.5,253C 299.5,256.333 298.5,256.333 297.5,253C 296.833,252.333 296.167,252.333 295.5,253C 296.187,255.232 296.521,257.398 296.5,259.5C 293.869,261.005 294.203,261.671 297.5,261.5C 297.351,260.448 297.517,259.448 298,258.5C 299.902,258.185 301.902,258.185 304,258.5C 306.181,254.657 308.348,254.657 310.5,258.5C 310.154,259.696 309.654,259.696 309,258.5C 306.645,261.628 307.145,262.795 310.5,262C 309.216,263.297 309.383,264.464 311,265.5C 311.089,262.151 312.256,261.651 314.5,264C 313.167,265 313.167,266 314.5,267C 312.18,268.488 312.013,270.321 314,272.5C 314.667,271.167 315.333,269.833 316,268.5C 316.615,270.116 317.615,271.449 319,272.5C 319.614,274.313 319.281,274.647 318,273.5C 315.74,278.356 312.74,282.689 309,286.5C 307.54,284.028 306.54,281.361 306,278.5C 305.16,281.464 304.16,281.797 303,279.5C 302.333,281.167 302.333,282.833 303,284.5C 303.308,283.692 303.808,283.025 304.5,282.5C 305.461,285.295 307.294,287.295 310,288.5C 311.087,286.068 311.587,286.402 311.5,289.5C 309.833,289.5 308.167,289.5 306.5,289.5C 306.517,293.377 305.351,294.043 303,291.5C 302.667,291.833 302.333,292.167 302,292.5C 301.333,288.5 300.667,288.5 300,292.5C 297.519,290.043 295.019,286.877 292.5,283C 293.449,282.383 294.282,282.549 295,283.5C 297.109,282.965 297.609,281.965 296.5,280.5C 297.376,279.749 298.376,279.249 299.5,279C 297.114,278.716 296.448,277.716 297.5,276C 293.067,273.867 289.734,275.034 287.5,279.5C 288.718,280.803 288.385,281.803 286.5,282.5C 288.314,286.222 291.314,287.889 295.5,287.5C 293.36,290.839 291.86,294.506 291,298.5C 290.517,297.552 290.351,296.552 290.5,295.5C 287.203,295.329 286.869,295.995 289.5,297.5C 288.833,297.833 288.167,298.167 287.5,298.5C 287.709,299.086 288.043,299.586 288.5,300C 287.167,299.667 285.833,299.333 284.5,299C 285.815,300.395 285.481,301.395 283.5,302C 284.448,302.483 285.448,302.649 286.5,302.5C 286.671,305.797 286.005,306.131 284.5,303.5C 281.82,306.443 281.153,306.11 282.5,302.5C 281.092,301.757 279.759,300.923 278.5,300C 279.736,297.646 281.403,295.646 283.5,294C 276.996,293.796 276.996,292.796 283.5,291C 283,290.5 282.5,290 282,289.5C 279.612,290.105 277.279,291.438 275,293.5C 274.667,293.167 274.333,292.833 274,292.5C 274.979,294.279 274.646,295.945 273,297.5C 272.683,295.699 272.016,295.366 271,296.5C 270.517,295.552 270.351,294.552 270.5,293.5C 269.448,293.649 268.448,293.483 267.5,293C 268.28,291.927 268.113,290.76 267,289.5C 265.312,290.325 265.145,291.325 266.5,292.5C 264.716,293.606 262.882,293.606 261,292.5C 259.48,293.697 258.313,295.197 257.5,297C 255.294,297.732 253.628,297.065 252.5,295C 253.711,293.156 255.044,292.322 256.5,292.5C 252.205,287.122 253.205,284.456 259.5,284.5C 259.354,282.058 260.187,281.391 262,282.5C 262.58,285.547 262.247,285.881 261,283.5C 260.833,284 260.667,284.5 260.5,285C 261.042,287.205 262.042,289.039 263.5,290.5C 265.836,289.406 265.836,288.073 263.5,286.5C 264.145,284.568 265.479,283.401 267.5,283C 266.167,282.667 264.833,282.333 263.5,282C 264.167,281.667 264.833,281.333 265.5,281C 261.877,279.844 258.211,278.844 254.5,278C 257.129,274.322 256.629,273.822 253,276.5C 252.586,276.043 252.086,275.709 251.5,275.5C 250.692,277.423 250.192,279.423 250,281.5C 249.501,277.848 249.335,274.182 249.5,270.5C 250.343,265.462 251.343,260.462 252.5,255.5C 254.539,254.089 255.539,252.089 255.5,249.5C 259.365,244.978 263.365,240.478 267.5,236C 271.742,233.39 275.742,230.557 279.5,227.5C 282.912,226.958 285.912,225.625 288.5,223.5C 290.903,223.552 293.236,223.219 295.5,222.5 Z"/></g>
<g><path style="opacity:0.881" fill="#f38933" d="M 415.5,294.5 C 428.837,294.333 442.171,294.5 455.5,295C 457.063,295.759 458.063,296.926 458.5,298.5C 455.958,297.376 453.292,296.542 450.5,296C 441.99,295.177 433.656,295.343 425.5,296.5C 422.167,296.5 418.833,296.5 415.5,296.5C 415.5,306.833 415.5,317.167 415.5,327.5C 427.833,327.5 440.167,327.5 452.5,327.5C 443.584,328.499 433.918,328.832 423.5,328.5C 420.5,328.5 417.5,328.5 414.5,328.5C 414.189,317.086 414.523,305.752 415.5,294.5 Z"/></g>
<g><path style="opacity:0.102" fill="#18151c" d="M 425.5,296.5 C 433.656,295.343 441.99,295.177 450.5,296C 453.292,296.542 455.958,297.376 458.5,298.5C 462.906,301.649 464.906,305.982 464.5,311.5C 464.911,316.509 463.244,320.676 459.5,324C 458.552,324.483 457.552,324.649 456.5,324.5C 456.167,324.5 455.833,324.5 455.5,324.5C 464.316,316.765 464.65,308.598 456.5,300C 443.599,298.538 430.599,298.038 417.5,298.5C 423.987,297.672 430.654,297.172 437.5,297C 433.514,296.501 429.514,296.334 425.5,296.5 Z"/></g>
<g><path style="opacity:0.996" fill="#0b95b0" d="M 359.5,175.5 C 366.167,175.5 372.833,175.5 379.5,175.5C 387.643,178.64 393.976,183.973 398.5,191.5C 399.441,212.144 399.774,232.811 399.5,253.5C 375.328,253.169 351.328,253.502 327.5,254.5C 327.5,312.5 327.5,370.5 327.5,428.5C 327.19,429.738 326.69,429.738 326,428.5C 325.749,426.567 325.249,424.734 324.5,423C 325.554,421.612 325.72,420.112 325,418.5C 324.646,420.807 323.646,421.141 322,419.5C 320.349,420.742 318.515,421.576 316.5,422C 319.279,422.149 319.779,422.983 318,424.5C 316.334,423.66 316.167,424.16 317.5,426C 316.696,427.771 315.529,429.271 314,430.5C 315.338,427.426 315.671,424.092 315,420.5C 314.107,421.711 313.274,421.711 312.5,420.5C 313.689,419.571 315.022,419.238 316.5,419.5C 316.33,418.178 316.663,417.011 317.5,416C 315.721,416.979 314.055,416.646 312.5,415C 314.83,413.925 316.163,412.425 316.5,410.5C 317.983,412.946 319.149,412.612 320,409.5C 320.554,411.61 321.388,413.61 322.5,415.5C 322.182,416.647 321.516,417.481 320.5,418C 322.695,418.712 324.362,418.045 325.5,416C 325.095,415.055 324.428,414.388 323.5,414C 324.76,411.787 325.426,409.287 325.5,406.5C 325.333,404.167 325.167,401.833 325,399.5C 324.902,401.619 324.069,403.286 322.5,404.5C 321.483,401.972 320.316,401.972 319,404.5C 317.663,402.996 315.996,401.996 314,401.5C 313.667,401.833 313.333,402.167 313,402.5C 312.835,400.322 313.668,398.489 315.5,397C 312.904,395.203 313.237,393.869 316.5,393C 314.576,392.821 312.909,392.654 311.5,392.5C 314.688,390.146 317.355,387.312 319.5,384C 318.953,383.075 318.287,382.242 317.5,381.5C 317.81,383.201 317.31,384.868 316,386.5C 314.701,386.034 313.201,386.034 311.5,386.5C 311.657,387.873 311.49,389.207 311,390.5C 310.667,390.167 310.333,389.833 310,389.5C 309.667,390.5 309.333,391.5 309,392.5C 307.644,391.62 306.144,391.286 304.5,391.5C 304.5,392.5 304.5,393.5 304.5,394.5C 300.582,390.937 295.915,389.604 290.5,390.5C 289.352,389.836 288.019,389.669 286.5,390C 287.38,388.644 287.714,387.144 287.5,385.5C 284.093,385.875 283.593,384.875 286,382.5C 286.914,383.654 287.747,383.487 288.5,382C 288,381.5 287.5,381 287,380.5C 284.676,381.807 283.343,383.807 283,386.5C 280.661,384.86 279.828,382.86 280.5,380.5C 281.251,381.376 281.751,382.376 282,383.5C 283.688,382.675 283.855,381.675 282.5,380.5C 284.397,379.332 284.564,377.665 283,375.5C 281.493,376.505 280.327,377.838 279.5,379.5C 278.269,378.349 278.269,377.183 279.5,376C 278.256,375.544 277.423,376.044 277,377.5C 276.893,374.869 276.727,372.369 276.5,370C 279.21,368.253 282.21,367.253 285.5,367C 284.891,364.942 283.891,364.109 282.5,364.5C 283,364.167 283.5,363.833 284,363.5C 286.025,363.828 288.191,363.994 290.5,364C 286.952,365.103 287.285,366.27 291.5,367.5C 291.669,366.603 292.002,365.603 292.5,364.5C 293.167,364.833 293.833,365.167 294.5,365.5C 295.23,364.066 296.23,362.9 297.5,362C 296.24,360.887 295.073,360.72 294,361.5C 292.086,360.324 292.252,359.324 294.5,358.5C 293.653,357.155 292.487,356.155 291,355.5C 289.388,355.952 288.388,357.285 288,359.5C 287.5,358.333 286.667,357.5 285.5,357C 286.997,355.129 288.997,354.129 291.5,354C 288.305,353.819 285.305,353.319 282.5,352.5C 285.518,352.665 288.518,352.498 291.5,352C 292.056,351.617 292.389,351.117 292.5,350.5C 292.833,350.5 293.167,350.5 293.5,350.5C 293.735,351.097 294.235,351.43 295,351.5C 307.135,345.783 311.135,336.45 307,323.5C 301.374,313.555 292.874,309.388 281.5,311C 273.137,313.526 268.137,319.026 266.5,327.5C 255.167,327.5 243.833,327.5 232.5,327.5C 234.383,313.485 240.383,301.652 250.5,292C 248.392,284.805 248.059,277.638 249.5,270.5C 249.335,274.182 249.501,277.848 250,281.5C 250.192,279.423 250.692,277.423 251.5,275.5C 252.086,275.709 252.586,276.043 253,276.5C 256.629,273.822 257.129,274.322 254.5,278C 258.211,278.844 261.877,279.844 265.5,281C 264.833,281.333 264.167,281.667 263.5,282C 264.833,282.333 266.167,282.667 267.5,283C 265.479,283.401 264.145,284.568 263.5,286.5C 265.836,288.073 265.836,289.406 263.5,290.5C 262.042,289.039 261.042,287.205 260.5,285C 260.667,284.5 260.833,284 261,283.5C 262.247,285.881 262.58,285.547 262,282.5C 260.187,281.391 259.354,282.058 259.5,284.5C 253.205,284.456 252.205,287.122 256.5,292.5C 255.044,292.322 253.711,293.156 252.5,295C 253.628,297.065 255.294,297.732 257.5,297C 258.313,295.197 259.48,293.697 261,292.5C 262.882,293.606 264.716,293.606 266.5,292.5C 265.145,291.325 265.312,290.325 267,289.5C 268.113,290.76 268.28,291.927 267.5,293C 268.448,293.483 269.448,293.649 270.5,293.5C 270.351,294.552 270.517,295.552 271,296.5C 272.016,295.366 272.683,295.699 273,297.5C 274.646,295.945 274.979,294.279 274,292.5C 274.333,292.833 274.667,293.167 275,293.5C 277.279,291.438 279.612,290.105 282,289.5C 282.5,290 283,290.5 283.5,291C 276.996,292.796 276.996,293.796 283.5,294C 281.403,295.646 279.736,297.646 278.5,300C 279.759,300.923 281.092,301.757 282.5,302.5C 281.153,306.11 281.82,306.443 284.5,303.5C 286.005,306.131 286.671,305.797 286.5,302.5C 285.448,302.649 284.448,302.483 283.5,302C 285.481,301.395 285.815,300.395 284.5,299C 285.833,299.333 287.167,299.667 288.5,300C 288.043,299.586 287.709,299.086 287.5,298.5C 288.167,298.167 288.833,297.833 289.5,297.5C 286.869,295.995 287.203,295.329 290.5,295.5C 290.351,296.552 290.517,297.552 291,298.5C 291.86,294.506 293.36,290.839 295.5,287.5C 291.314,287.889 288.314,286.222 286.5,282.5C 288.385,281.803 288.718,280.803 287.5,279.5C 289.734,275.034 293.067,273.867 297.5,276C 296.448,277.716 297.114,278.716 299.5,279C 298.376,279.249 297.376,279.749 296.5,280.5C 297.609,281.965 297.109,282.965 295,283.5C 294.282,282.549 293.449,282.383 292.5,283C 295.019,286.877 297.519,290.043 300,292.5C 300.667,288.5 301.333,288.5 302,292.5C 302.333,292.167 302.667,291.833 303,291.5C 305.351,294.043 306.517,293.377 306.5,289.5C 308.167,289.5 309.833,289.5 311.5,289.5C 311.587,286.402 311.087,286.068 310,288.5C 307.294,287.295 305.461,285.295 304.5,282.5C 303.808,283.025 303.308,283.692 303,284.5C 302.333,282.833 302.333,281.167 303,279.5C 304.16,281.797 305.16,281.464 306,278.5C 306.54,281.361 307.54,284.028 309,286.5C 312.74,282.689 315.74,278.356 318,273.5C 319.281,274.647 319.614,274.313 319,272.5C 317.615,271.449 316.615,270.116 316,268.5C 315.333,269.833 314.667,271.167 314,272.5C 312.013,270.321 312.18,268.488 314.5,267C 313.167,266 313.167,265 314.5,264C 312.256,261.651 311.089,262.151 311,265.5C 309.383,264.464 309.216,263.297 310.5,262C 307.145,262.795 306.645,261.628 309,258.5C 309.654,259.696 310.154,259.696 310.5,258.5C 308.348,254.657 306.181,254.657 304,258.5C 301.902,258.185 299.902,258.185 298,258.5C 297.517,259.448 297.351,260.448 297.5,261.5C 294.203,261.671 293.869,261.005 296.5,259.5C 296.521,257.398 296.187,255.232 295.5,253C 296.167,252.333 296.833,252.333 297.5,253C 298.5,256.333 299.5,256.333 300.5,253C 299.176,251.128 297.676,250.295 296,250.5C 294.148,248.77 294.314,247.604 296.5,247C 294.484,245.871 292.818,245.038 291.5,244.5C 292.983,242.054 294.149,242.388 295,245.5C 295.333,245.167 295.667,244.833 296,244.5C 297.943,247.216 299.943,249.883 302,252.5C 302.635,251.034 303.469,249.7 304.5,248.5C 304.154,247.304 303.654,247.304 303,248.5C 302.333,247.5 302.333,246.5 303,245.5C 304.423,243.449 305.923,241.449 307.5,239.5C 304.947,239.294 302.447,238.961 300,238.5C 300.617,240.095 300.284,241.428 299,242.5C 298.374,240.287 298.541,238.12 299.5,236C 299.056,234.238 298.556,234.405 298,236.5C 297.316,235.216 297.483,234.049 298.5,233C 294.185,230.884 293.518,231.884 296.5,236C 294.877,237.876 295.21,239.21 297.5,240C 296.584,240.374 295.75,240.874 295,241.5C 292.986,239.817 291.32,237.817 290,235.5C 289.275,237.158 288.108,237.658 286.5,237C 287.667,235.833 288.833,234.667 290,233.5C 290.281,231.095 289.615,231.095 288,233.5C 286.527,233.868 285.027,233.368 283.5,232C 284.218,230.013 285.218,228.179 286.5,226.5C 286.296,227.529 286.796,228.529 288,229.5C 288.388,228.572 289.055,227.905 290,227.5C 292.728,229.97 295.894,231.136 299.5,231C 299.64,229.403 299.64,227.903 299.5,226.5C 299.035,224.192 297.701,222.858 295.5,222.5C 296.531,221.751 297.698,221.085 299,220.5C 302.076,212.265 306.576,204.932 312.5,198.5C 312.93,199.955 312.93,201.288 312.5,202.5C 314.197,201.636 315.363,200.303 316,198.5C 316.615,200.116 317.615,201.449 319,202.5C 322.621,198.161 325.621,198.495 328,203.5C 329,202.167 330,202.167 331,203.5C 331.624,201.536 331.124,199.869 329.5,198.5C 330.77,197.438 331.937,196.438 333,195.5C 333.893,196.711 334.726,196.711 335.5,195.5C 334.189,194.742 333.689,193.742 334,192.5C 336.109,192.566 338.275,192.899 340.5,193.5C 340.835,191.997 340.835,190.664 340.5,189.5C 341.795,190.098 343.128,190.598 344.5,191C 342,191.833 341.833,193 344,194.5C 346.179,193.265 347.513,191.931 348,190.5C 348.546,191.289 349.213,192.289 350,193.5C 351.317,191.268 352.15,189.268 352.5,187.5C 353.251,188.376 353.751,189.376 354,190.5C 354.333,189.833 354.667,189.167 355,188.5C 355.5,189.667 356.333,190.5 357.5,191C 354.833,191.667 354.833,192.333 357.5,193C 355.865,194.748 353.865,195.915 351.5,196.5C 352.711,197.72 352.711,198.887 351.5,200C 352.449,200.617 353.282,200.451 354,199.5C 354.688,200.332 354.521,200.998 353.5,201.5C 352.109,202.645 350.776,202.645 349.5,201.5C 351.359,197.934 350.359,195.6 346.5,194.5C 343.388,195.351 343.054,196.517 345.5,198C 344,200.167 342.833,200 342,197.5C 341.226,199.403 341.56,201.07 343,202.5C 343.725,200.842 344.892,200.342 346.5,201C 344.209,202.389 342.042,203.889 340,205.5C 339.5,205 339,204.5 338.5,204C 338.833,202.333 339.167,200.667 339.5,199C 338.128,198.598 336.795,198.098 335.5,197.5C 331.639,199.157 331.639,200.657 335.5,202C 334.397,203.68 334.73,205.18 336.5,206.5C 336.167,206.833 335.833,207.167 335.5,207.5C 333.817,204.787 331.817,204.287 329.5,206C 330.833,206.333 332.167,206.667 333.5,207C 332.72,208.073 332.887,209.24 334,210.5C 334.805,208.099 335.638,208.266 336.5,211C 334.276,213.149 332.776,212.649 332,209.5C 331.316,210.784 331.483,211.951 332.5,213C 334.553,213.325 336.553,212.991 338.5,212C 337.483,210.951 337.316,209.784 338,208.5C 338.667,211.167 339.333,211.167 340,208.5C 340.068,211.319 341.234,213.486 343.5,215C 341.833,215.667 340.167,215.667 338.5,215C 339.696,214.346 339.696,213.846 338.5,213.5C 338.167,214 337.833,214.5 337.5,215C 338.444,216.477 339.777,217.477 341.5,218C 337.37,219.337 336.87,221.171 340,223.5C 340.333,222.5 340.667,221.5 341,220.5C 343.417,226.47 342.25,227.137 337.5,222.5C 337.5,224.5 337.5,226.5 337.5,228.5C 336.304,228.154 336.304,227.654 337.5,227C 336.234,226.691 335.067,226.191 334,225.5C 333.833,225.833 333.667,226.167 333.5,226.5C 334.799,228.142 336.299,229.476 338,230.5C 339.835,228.916 341.835,227.583 344,226.5C 347.008,227.05 347.841,228.55 346.5,231C 348.801,232.837 348.468,234.503 345.5,236C 346.167,236.333 346.833,236.667 347.5,237C 347.018,238.008 346.852,239.175 347,240.5C 346.667,240.167 346.333,239.833 346,239.5C 345.626,240.416 345.126,241.25 344.5,242C 346.595,242.556 346.762,243.056 345,243.5C 343.452,240.366 341.618,240.033 339.5,242.5C 341.112,244.513 342.445,246.68 343.5,249C 343.333,249.5 343.167,250 343,250.5C 341.703,249.216 340.536,249.383 339.5,251C 344.65,251.132 349.65,251.298 354.5,251.5C 354.293,248.255 355.793,246.255 359,245.5C 359.456,246.744 358.956,247.577 357.5,248C 358,248.5 358.5,249 359,249.5C 359.804,248.196 360.971,247.529 362.5,247.5C 364.808,247.989 365.975,248.989 366,250.5C 367.713,249.863 367.879,248.863 366.5,247.5C 369.487,246.216 371.987,246.883 374,249.5C 374.333,248.833 374.667,248.167 375,247.5C 375.199,249.402 376.033,250.902 377.5,252C 384.068,251.626 390.735,251.793 397.5,252.5C 397.667,233.83 397.5,215.164 397,196.5C 396.25,195.874 395.416,195.374 394.5,195C 395.428,194.612 396.095,193.945 396.5,193C 395.541,189.164 393.207,186.998 389.5,186.5C 389.66,188.199 389.494,189.866 389,191.5C 388.178,189.212 387.511,186.878 387,184.5C 386.626,185.416 386.126,186.25 385.5,187C 386.788,189.466 386.788,191.966 385.5,194.5C 386.098,195.795 386.598,197.128 387,198.5C 387.308,197.692 387.808,197.025 388.5,196.5C 389.584,197.665 390.417,198.998 391,200.5C 391.667,199.167 392.333,199.167 393,200.5C 393.667,201.5 393.667,202.5 393,203.5C 391.578,203.406 390.078,203.072 388.5,202.5C 389.506,201.604 389.506,200.938 388.5,200.5C 386.809,202.256 384.809,202.756 382.5,202C 383.833,201.333 385.167,200.667 386.5,200C 384.697,199.363 383.364,198.197 382.5,196.5C 383.386,193.196 383.719,190.029 383.5,187C 382.391,186.362 381.225,185.862 380,185.5C 375.542,186.96 375.376,188.96 379.5,191.5C 382.402,189.197 383.236,190.197 382,194.5C 381.667,194.167 381.333,193.833 381,193.5C 380.333,194.833 379.667,196.167 379,197.5C 378.355,196.354 377.522,195.354 376.5,194.5C 376.709,193.914 377.043,193.414 377.5,193C 374.833,192.333 374.833,191.667 377.5,191C 375.511,186.826 373.344,186.992 371,191.5C 370.784,189.616 370.117,187.949 369,186.5C 368.383,187.449 368.549,188.282 369.5,189C 368.033,190.098 367.199,191.598 367,193.5C 366.654,191.152 365.487,189.319 363.5,188C 366.333,187.833 367.833,186.333 368,183.5C 369.558,184.345 370.558,183.679 371,181.5C 374.142,182.77 376.475,181.77 378,178.5C 379.049,179.517 380.216,179.684 381.5,179C 379.305,177.627 376.971,177.294 374.5,178C 372.122,178.974 372.456,179.641 375.5,180C 373.888,180.72 372.388,180.554 371,179.5C 368.684,183.081 366.851,183.414 365.5,180.5C 364.261,182.007 364.595,183.174 366.5,184C 365.24,185.113 364.073,185.28 363,184.5C 362.5,186 362,187.5 361.5,189C 362.736,189.326 364.07,190.326 365.5,192C 363.667,193.167 361.833,194.333 360,195.5C 359.056,194.737 358.556,193.737 358.5,192.5C 359.362,190.49 359.862,188.49 360,186.5C 358.951,187.517 357.784,187.684 356.5,187C 352.32,185.493 351.986,183.993 355.5,182.5C 355.306,180.597 355.306,178.763 355.5,177C 357.058,176.79 358.391,176.29 359.5,175.5 Z"/></g>
<g><path style="opacity:0.161" fill="#181519" d="M 252.5,255.5 C 251.343,260.462 250.343,265.462 249.5,270.5C 248.059,277.638 248.392,284.805 250.5,292C 240.383,301.652 234.383,313.485 232.5,327.5C 243.833,327.5 255.167,327.5 266.5,327.5C 268.137,319.026 273.137,313.526 281.5,311C 292.874,309.388 301.374,313.555 307,323.5C 311.135,336.45 307.135,345.783 295,351.5C 294.235,351.43 293.735,351.097 293.5,350.5C 305.689,344.064 308.856,334.397 303,321.5C 295.644,313.03 286.811,311.197 276.5,316C 272.072,319.092 269.239,323.259 268,328.5C 267.25,329.126 266.416,329.626 265.5,330C 254.447,330.312 243.447,329.812 232.5,328.5C 232.32,314.847 237.154,303.18 247,293.5C 247.333,284.833 247.667,276.167 248,267.5C 248.838,263.14 250.338,259.14 252.5,255.5 Z"/></g>
<g><path style="opacity:0.496" fill="#0f7186" d="M 370.5,273.5 C 362.833,273.5 355.167,273.5 347.5,273.5C 347.5,318.833 347.5,364.167 347.5,409.5C 347.167,409.5 346.833,409.5 346.5,409.5C 346.5,363.833 346.5,318.167 346.5,272.5C 354.684,272.174 362.684,272.508 370.5,273.5 Z"/></g>
<g><path style="opacity:0.996" fill="#f77430" d="M 415.5,294.5 C 414.523,305.752 414.189,317.086 414.5,328.5C 417.5,328.5 420.5,328.5 423.5,328.5C 424.952,329.302 426.618,329.802 428.5,330C 428,330.5 427.5,331 427,331.5C 424.049,331.148 420.882,330.482 417.5,329.5C 416.833,329.667 416.167,329.833 415.5,330C 419.272,331.83 418.939,333.33 414.5,334.5C 415.692,339.098 417.359,339.431 419.5,335.5C 420.243,336.908 421.077,338.241 422,339.5C 423.494,338.253 424.994,338.253 426.5,339.5C 424.585,341.071 423.585,343.071 423.5,345.5C 421.143,345.337 418.81,345.503 416.5,346C 415.748,346.671 415.414,347.504 415.5,348.5C 415.5,361.167 415.5,373.833 415.5,386.5C 415.918,387.222 416.584,387.722 417.5,388C 427.167,388.333 436.833,388.667 446.5,389C 447.313,390.314 448.313,391.481 449.5,392.5C 447.614,393.406 445.78,394.406 444,395.5C 443.016,393.205 442.183,393.539 441.5,396.5C 442.833,397.833 444.167,399.167 445.5,400.5C 443.96,401.532 443.46,402.865 444,404.5C 444.604,402.314 445.77,402.148 447.5,404C 446.289,404.893 446.289,405.726 447.5,406.5C 448.333,405.5 449.167,404.5 450,403.5C 450.5,404.667 451.333,405.5 452.5,406C 433.319,407.487 413.986,407.987 394.5,407.5C 394.825,399.648 394.492,391.982 393.5,384.5C 393.5,352.833 393.5,321.167 393.5,289.5C 395.155,284.918 395.488,280.252 394.5,275.5C 402.507,275.334 410.507,275.5 418.5,276C 417.833,276.333 417.167,276.667 416.5,277C 417.824,278.872 419.324,279.705 421,279.5C 421.456,280.744 420.956,281.577 419.5,282C 420.167,282.333 420.833,282.667 421.5,283C 419.12,285.204 416.62,286.37 414,286.5C 413.342,288.108 413.842,289.275 415.5,290C 413.123,291.47 413.123,292.97 415.5,294.5 Z"/></g>
<g><path style="opacity:0.996" fill="#f57531" d="M 580.5,308.5 C 583.264,313.393 584.93,318.727 585.5,324.5C 585.5,326.833 585.5,329.167 585.5,331.5C 583.5,331.5 581.5,331.5 579.5,331.5C 566.177,330.587 552.843,330.42 539.5,331C 538.944,331.383 538.611,331.883 538.5,332.5C 536.061,334.1 534.728,336.433 534.5,339.5C 535.482,345.481 538.982,348.481 545,348.5C 558.807,347.543 572.641,347.21 586.5,347.5C 586.529,353.21 586.029,358.877 585,364.5C 580.82,377.032 573.986,387.865 564.5,397C 557.833,397.667 551.167,397.667 544.5,397C 540.124,393.522 535.124,392.188 529.5,393C 520.588,399.849 520.255,407.016 528.5,414.5C 526.549,414.773 525.049,414.107 524,412.5C 523.282,413.451 522.449,413.617 521.5,413C 520.167,407.333 520.167,401.667 521.5,396C 522.624,395.751 523.624,395.251 524.5,394.5C 523.888,393.005 523.888,391.338 524.5,389.5C 524.314,387.42 523.314,385.92 521.5,385C 522.815,383.605 522.481,382.605 520.5,382C 521.978,380.807 523.312,380.307 524.5,380.5C 523.756,377.557 523.256,374.557 523,371.5C 522.692,372.308 522.192,372.975 521.5,373.5C 519.228,372.559 517.228,371.226 515.5,369.5C 514.056,377.106 512.056,384.606 509.5,392C 510.99,393.663 511.656,395.33 511.5,397C 507.795,397.04 505.628,398.873 505,402.5C 504.329,403.252 503.496,403.586 502.5,403.5C 507.265,395.876 510.265,387.543 511.5,378.5C 514.152,369.783 513.485,361.283 509.5,353C 509.164,351.97 508.497,351.47 507.5,351.5C 504.952,346.273 501.952,341.273 498.5,336.5C 504.157,325.901 506.824,314.567 506.5,302.5C 507.767,306.785 507.767,312.452 506.5,319.5C 506.541,322.331 507.208,324.998 508.5,327.5C 508.529,326.166 509.363,324.833 511,323.5C 513.398,323.065 515.731,323.731 518,325.5C 518.645,324.354 519.478,323.354 520.5,322.5C 519.41,321.391 519.41,320.391 520.5,319.5C 523.844,322.345 527.011,325.345 530,328.5C 532.022,327.009 533.688,327.342 535,329.5C 535.741,328.359 536.575,328.359 537.5,329.5C 538.598,325.639 539.431,325.639 540,329.5C 540.419,328.328 541.085,327.328 542,326.5C 545.064,327.783 548.397,328.45 552,328.5C 555.418,328.481 558.751,328.147 562,327.5C 563.698,328.733 565.698,329.4 568,329.5C 570.302,329.4 572.302,328.733 574,327.5C 575.587,328.727 576.921,328.394 578,326.5C 579.714,327.925 581.047,327.592 582,325.5C 582.718,326.451 583.551,326.617 584.5,326C 583.625,320.075 582.291,314.242 580.5,308.5 Z"/></g>
<g><path style="opacity:0.086" fill="#150f12" d="M 286.5,320.5 C 297.677,322.855 300.844,329.188 296,339.5C 295.097,340.701 293.931,341.535 292.5,342C 278.683,343.862 274.183,338.362 279,325.5C 280.913,322.72 283.413,321.053 286.5,320.5 Z"/></g>
<g><path style="opacity:0.995" fill="#f67531" d="M 456.5,274.5 C 459.86,274.616 463.193,274.949 466.5,275.5C 466.833,275.5 467.167,275.5 467.5,275.5C 488.33,290.106 492.83,308.772 481,331.5C 479.167,333.333 477.333,335.167 475.5,337C 491.109,349.421 495.943,365.254 490,384.5C 483.686,396.317 474.186,404.317 461.5,408.5C 460.167,408.5 458.833,408.5 457.5,408.5C 436.167,408.5 414.833,408.5 393.5,408.5C 393.5,400.5 393.5,392.5 393.5,384.5C 394.492,391.982 394.825,399.648 394.5,407.5C 413.986,407.987 433.319,407.487 452.5,406C 451.333,405.5 450.5,404.667 450,403.5C 449.167,404.5 448.333,405.5 447.5,406.5C 446.289,405.726 446.289,404.893 447.5,404C 445.77,402.148 444.604,402.314 444,404.5C 443.46,402.865 443.96,401.532 445.5,400.5C 444.167,399.167 442.833,397.833 441.5,396.5C 442.183,393.539 443.016,393.205 444,395.5C 445.78,394.406 447.614,393.406 449.5,392.5C 448.313,391.481 447.313,390.314 446.5,389C 436.833,388.667 427.167,388.333 417.5,388C 416.584,387.722 415.918,387.222 415.5,386.5C 425.012,386.451 434.512,386.784 444,387.5C 453.506,388.224 461.506,385.224 468,378.5C 472.829,366.32 469.662,356.82 458.5,350C 444.226,348.57 429.892,348.07 415.5,348.5C 415.414,347.504 415.748,346.671 416.5,346C 418.81,345.503 421.143,345.337 423.5,345.5C 423.585,343.071 424.585,341.071 426.5,339.5C 424.994,338.253 423.494,338.253 422,339.5C 421.077,338.241 420.243,336.908 419.5,335.5C 417.359,339.431 415.692,339.098 414.5,334.5C 418.939,333.33 419.272,331.83 415.5,330C 416.167,329.833 416.833,329.667 417.5,329.5C 420.882,330.482 424.049,331.148 427,331.5C 427.5,331 428,330.5 428.5,330C 426.618,329.802 424.952,329.302 423.5,328.5C 433.918,328.832 443.584,328.499 452.5,327.5C 454.076,326.857 455.41,325.857 456.5,324.5C 457.552,324.649 458.552,324.483 459.5,324C 463.244,320.676 464.911,316.509 464.5,311.5C 464.906,305.982 462.906,301.649 458.5,298.5C 458.063,296.926 457.063,295.759 455.5,295C 442.171,294.5 428.837,294.333 415.5,294.5C 413.123,292.97 413.123,291.47 415.5,290C 413.842,289.275 413.342,288.108 414,286.5C 416.62,286.37 419.12,285.204 421.5,283C 420.833,282.667 420.167,282.333 419.5,282C 420.956,281.577 421.456,280.744 421,279.5C 419.324,279.705 417.824,278.872 416.5,277C 417.167,276.667 417.833,276.333 418.5,276C 410.507,275.5 402.507,275.334 394.5,275.5C 395.488,280.252 395.155,284.918 393.5,289.5C 393.5,284.5 393.5,279.5 393.5,274.5C 414.5,274.5 435.5,274.5 456.5,274.5 Z"/></g>
<g><path style="opacity:0.171" fill="#090a20" d="M 425.5,296.5 C 429.514,296.334 433.514,296.501 437.5,297C 430.654,297.172 423.987,297.672 417.5,298.5C 417.5,307.5 417.5,316.5 417.5,325.5C 430.204,325.775 442.87,325.442 455.5,324.5C 455.833,324.5 456.167,324.5 456.5,324.5C 455.41,325.857 454.076,326.857 452.5,327.5C 440.167,327.5 427.833,327.5 415.5,327.5C 415.5,317.167 415.5,306.833 415.5,296.5C 418.833,296.5 422.167,296.5 425.5,296.5 Z"/></g>
<g><path style="opacity:0.983" fill="#0c96b0" d="M 285.5,322.5 C 294.329,323.131 297.496,327.798 295,336.5C 292.459,341.069 288.625,342.569 283.5,341C 276.484,333.943 277.15,327.776 285.5,322.5 Z"/></g>
<g><path style="opacity:0.055" fill="#1e2124" d="M 372.5,273.5 C 373.037,315.889 373.037,360.556 372.5,407.5C 371.167,362.833 371.167,318.167 372.5,273.5 Z"/></g>
<g><path style="opacity:0.278" fill="#0c0c28" d="M 579.5,331.5 C 581.265,332.461 583.265,332.795 585.5,332.5C 579.158,333.107 572.825,333.441 566.5,333.5C 565.5,333.5 564.5,333.5 563.5,333.5C 564.463,332.637 564.463,331.97 563.5,331.5C 559.677,331.918 555.677,331.918 551.5,331.5C 547.761,331.514 544.428,332.18 541.5,333.5C 541.167,333.5 540.833,333.5 540.5,333.5C 539.833,333.167 539.167,332.833 538.5,332.5C 538.611,331.883 538.944,331.383 539.5,331C 552.843,330.42 566.177,330.587 579.5,331.5 Z"/></g>
<g><path style="opacity:0.095" fill="#0b0f20" d="M 466.5,275.5 C 463.193,274.949 459.86,274.616 456.5,274.5C 435.34,273.503 414.007,273.169 392.5,273.5C 392.5,318.833 392.5,364.167 392.5,409.5C 414.34,409.831 436.006,409.497 457.5,408.5C 458.833,408.5 460.167,408.5 461.5,408.5C 462.492,408.328 463.158,408.662 463.5,409.5C 457.562,410.259 451.562,410.926 445.5,411.5C 427.412,410.945 409.412,410.611 391.5,410.5C 390.856,407.684 390.523,405.018 390.5,402.5C 391.161,359.204 391.828,315.871 392.5,272.5C 415.484,271.09 438.484,271.257 461.5,273C 463.491,273.374 465.158,274.207 466.5,275.5 Z"/></g>
<g><path style="opacity:0.298" fill="#77432d" d="M 585.5,324.5 C 586.833,327.167 586.833,329.833 585.5,332.5C 583.265,332.795 581.265,332.461 579.5,331.5C 581.5,331.5 583.5,331.5 585.5,331.5C 585.5,329.167 585.5,326.833 585.5,324.5 Z"/></g>
<g><path style="opacity:0.005" fill="#131516" d="M 563.5,333.5 C 556.167,333.5 548.833,333.5 541.5,333.5C 544.428,332.18 547.761,331.514 551.5,331.5C 555.677,331.918 559.677,331.918 563.5,331.5C 564.463,331.97 564.463,332.637 563.5,333.5 Z"/></g>
<g><path style="opacity:0.463" fill="#c77432" d="M 456.5,274.5 C 435.5,274.5 414.5,274.5 393.5,274.5C 393.5,279.5 393.5,284.5 393.5,289.5C 393.5,321.167 393.5,352.833 393.5,384.5C 393.5,392.5 393.5,400.5 393.5,408.5C 414.833,408.5 436.167,408.5 457.5,408.5C 436.006,409.497 414.34,409.831 392.5,409.5C 392.5,364.167 392.5,318.833 392.5,273.5C 414.007,273.169 435.34,273.503 456.5,274.5 Z"/></g>
<g><path style="opacity:0.006" fill="#080f0f" d="M 627.5,353.5 C 626.163,352.685 625.163,351.518 624.5,350C 613.172,349.5 601.838,349.333 590.5,349.5C 601.971,347.443 613.637,347.109 625.5,348.5C 626.456,350.075 627.123,351.742 627.5,353.5 Z"/></g>
<g><path style="opacity:0.995" fill="#f37530" d="M 658.5,323.5 C 665.115,330.177 667.282,338.177 665,347.5C 658.336,359.916 648.502,363.416 635.5,358C 631.248,355.581 628.248,352.081 626.5,347.5C 613.517,346.501 600.517,346.168 587.5,346.5C 587.5,342.5 587.5,338.5 587.5,334.5C 600.5,334.5 613.5,334.5 626.5,334.5C 628.213,326.951 632.88,322.118 640.5,320C 643.5,319.333 646.5,319.333 649.5,320C 652.521,321.18 655.521,322.346 658.5,323.5 Z M 642.5,334.5 C 639.76,336.9 638.927,339.9 640,343.5C 643.333,347.5 646.667,347.5 650,343.5C 651.32,337.32 648.82,334.32 642.5,334.5 Z"/></g>
<g><path style="opacity:0.382" fill="#181520" d="M 642.5,332.5 C 651.352,331.183 654.852,334.85 653,343.5C 650.565,348.224 646.731,349.724 641.5,348C 635.939,342.353 636.272,337.186 642.5,332.5 Z M 642.5,334.5 C 639.76,336.9 638.927,339.9 640,343.5C 643.333,347.5 646.667,347.5 650,343.5C 651.32,337.32 648.82,334.32 642.5,334.5 Z"/></g>
<g><path style="opacity:0.953" fill="#cb6f32" d="M 507.5,351.5 C 508.497,351.47 509.164,351.97 509.5,353C 513.485,361.283 514.152,369.783 511.5,378.5C 512.423,369.106 511.09,360.106 507.5,351.5 Z"/></g>
<g><path style="opacity:0.29" fill="#180a0c" d="M 327.5,254.5 C 332.363,254.181 337.03,254.514 341.5,255.5C 337.4,255.237 333.4,255.57 329.5,256.5C 328.167,291.167 328.167,325.833 329.5,360.5C 330.401,382.355 330.734,404.688 330.5,427.5C 353.673,427.169 376.673,427.502 399.5,428.5C 375.5,428.5 351.5,428.5 327.5,428.5C 327.5,370.5 327.5,312.5 327.5,254.5 Z"/></g>
<g><path style="opacity:0.996" fill="#0c94ae" d="M 282.5,352.5 C 285.305,353.319 288.305,353.819 291.5,354C 288.997,354.129 286.997,355.129 285.5,357C 286.667,357.5 287.5,358.333 288,359.5C 288.388,357.285 289.388,355.952 291,355.5C 292.487,356.155 293.653,357.155 294.5,358.5C 292.252,359.324 292.086,360.324 294,361.5C 295.073,360.72 296.24,360.887 297.5,362C 296.23,362.9 295.23,364.066 294.5,365.5C 293.833,365.167 293.167,364.833 292.5,364.5C 292.002,365.603 291.669,366.603 291.5,367.5C 287.285,366.27 286.952,365.103 290.5,364C 288.191,363.994 286.025,363.828 284,363.5C 283.5,363.833 283,364.167 282.5,364.5C 283.891,364.109 284.891,364.942 285.5,367C 282.21,367.253 279.21,368.253 276.5,370C 276.727,372.369 276.893,374.869 277,377.5C 277.423,376.044 278.256,375.544 279.5,376C 278.269,377.183 278.269,378.349 279.5,379.5C 280.327,377.838 281.493,376.505 283,375.5C 284.564,377.665 284.397,379.332 282.5,380.5C 283.855,381.675 283.688,382.675 282,383.5C 281.751,382.376 281.251,381.376 280.5,380.5C 279.828,382.86 280.661,384.86 283,386.5C 283.343,383.807 284.676,381.807 287,380.5C 287.5,381 288,381.5 288.5,382C 287.747,383.487 286.914,383.654 286,382.5C 283.593,384.875 284.093,385.875 287.5,385.5C 287.714,387.144 287.38,388.644 286.5,390C 288.019,389.669 289.352,389.836 290.5,390.5C 287.573,391.757 285.239,393.757 283.5,396.5C 273.851,397.665 264.184,397.832 254.5,397C 239.73,383.398 232.063,366.565 231.5,346.5C 218.5,346.5 205.5,346.5 192.5,346.5C 187.687,358.405 179.02,362.572 166.5,359C 155.553,352.842 152.053,343.676 156,331.5C 163.015,320.412 172.515,317.579 184.5,323C 188.752,325.419 191.752,328.919 193.5,333.5C 217.489,334.63 241.489,335.464 265.5,336C 267.763,345.098 273.43,350.598 282.5,352.5 Z M 172.5,334.5 C 178.996,335.014 180.996,338.347 178.5,344.5C 171.452,347.714 168.286,345.381 169,337.5C 170.145,336.364 171.312,335.364 172.5,334.5 Z"/></g>
<g><path style="opacity:0.098" fill="#120f21" d="M 415.5,348.5 C 429.892,348.07 444.226,348.57 458.5,350C 469.662,356.82 472.829,366.32 468,378.5C 461.506,385.224 453.506,388.224 444,387.5C 434.512,386.784 425.012,386.451 415.5,386.5C 415.5,373.833 415.5,361.167 415.5,348.5 Z M 417.5,350.5 C 430.171,350.333 442.838,350.5 455.5,351C 467.392,356.568 470.892,365.401 466,377.5C 460.166,383.969 452.833,386.636 444,385.5C 435.176,384.873 426.343,384.54 417.5,384.5C 417.5,373.167 417.5,361.833 417.5,350.5 Z"/></g>
<g><path style="opacity:0.957" fill="#0ca0bc" d="M 370.5,273.5 C 370.5,318.833 370.5,364.167 370.5,409.5C 369.833,409.5 369.167,409.5 368.5,409.5C 368.141,364.64 368.141,319.64 368.5,274.5C 361.833,274.5 355.167,274.5 348.5,274.5C 348.5,319.5 348.5,364.5 348.5,409.5C 348.167,409.5 347.833,409.5 347.5,409.5C 347.5,364.167 347.5,318.833 347.5,273.5C 355.167,273.5 362.833,273.5 370.5,273.5 Z"/></g>
<g><path style="opacity:0.996" fill="#0b94ae" d="M 368.5,409.5 C 361.833,409.5 355.167,409.5 348.5,409.5C 348.5,364.5 348.5,319.5 348.5,274.5C 355.167,274.5 361.833,274.5 368.5,274.5C 368.141,319.64 368.141,364.64 368.5,409.5 Z"/></g>
<g><path style="opacity:0.059" fill="#17131d" d="M 467.5,275.5 C 481.758,282.316 489.092,293.816 489.5,310C 489.338,320.5 485.671,329.5 478.5,337C 496.108,353.072 499.275,371.572 488,392.5C 481.435,400.528 473.268,406.195 463.5,409.5C 463.158,408.662 462.492,408.328 461.5,408.5C 474.186,404.317 483.686,396.317 490,384.5C 495.943,365.254 491.109,349.421 475.5,337C 477.333,335.167 479.167,333.333 481,331.5C 492.83,308.772 488.33,290.106 467.5,275.5 Z"/></g>
<g><path style="opacity:0.996" fill="#f67430" d="M 528.5,414.5 C 535.788,416.989 541.788,415.323 546.5,409.5C 562.536,410.151 578.202,409.484 593.5,407.5C 599.238,395.703 608.572,391.703 621.5,395.5C 630.779,401.738 634.279,410.405 632,421.5C 625.668,433.731 615.834,437.564 602.5,433C 597.996,430.004 594.663,426.004 592.5,421C 581.5,420.333 570.5,420.333 559.5,421C 552.441,445.391 536.441,460.058 511.5,465C 503.799,465.57 496.132,466.403 488.5,467.5C 485.755,466.538 483.755,464.705 482.5,462C 474.402,457.681 467.569,459.181 462,466.5C 459.833,480.333 465.667,486.167 479.5,484C 480.966,483.365 482.3,482.531 483.5,481.5C 481.593,492.66 475.926,501.826 466.5,509C 456.116,516.846 444.45,519.846 431.5,518C 428.244,516.884 425.578,515.051 423.5,512.5C 422.055,509.676 420.889,506.676 420,503.5C 419.5,478.836 419.333,454.169 419.5,429.5C 433.677,429.829 447.677,429.496 461.5,428.5C 478.113,425.026 491.78,416.692 502.5,403.5C 503.496,403.586 504.329,403.252 505,402.5C 505.628,398.873 507.795,397.04 511.5,397C 511.656,395.33 510.99,393.663 509.5,392C 512.056,384.606 514.056,377.106 515.5,369.5C 517.228,371.226 519.228,372.559 521.5,373.5C 522.192,372.975 522.692,372.308 523,371.5C 523.256,374.557 523.756,377.557 524.5,380.5C 523.312,380.307 521.978,380.807 520.5,382C 522.481,382.605 522.815,383.605 521.5,385C 523.314,385.92 524.314,387.42 524.5,389.5C 523.888,391.338 523.888,393.005 524.5,394.5C 523.624,395.251 522.624,395.751 521.5,396C 520.167,401.667 520.167,407.333 521.5,413C 522.449,413.617 523.282,413.451 524,412.5C 525.049,414.107 526.549,414.773 528.5,414.5 Z M 611.5,408.5 C 617.015,410.149 618.515,413.482 616,418.5C 608.478,422.325 605.478,419.992 607,411.5C 608.409,410.219 609.909,409.219 611.5,408.5 Z"/></g>
<g><path style="opacity:0.427" fill="#c26d2f" d="M 593.5,407.5 C 578.202,409.484 562.536,410.151 546.5,409.5C 562.069,408.819 577.735,408.152 593.5,407.5 Z"/></g>
<g><path style="opacity:0.288" fill="#14252e" d="M 372.5,408.5 C 372.423,409.75 371.756,410.583 370.5,411C 362.421,411.8 354.421,411.633 346.5,410.5C 346.5,410.167 346.5,409.833 346.5,409.5C 346.833,409.5 347.167,409.5 347.5,409.5C 347.833,409.5 348.167,409.5 348.5,409.5C 355.167,409.5 361.833,409.5 368.5,409.5C 369.167,409.5 369.833,409.5 370.5,409.5C 371.167,409.167 371.833,408.833 372.5,408.5 Z"/></g>
<g><path style="opacity:0.005" fill="#18161f" d="M 608.5,406.5 C 617.135,406.044 620.969,410.044 620,418.5C 614.867,425.075 609.867,425.075 605,418.5C 603.593,413.643 604.76,409.643 608.5,406.5 Z M 611.5,408.5 C 609.909,409.219 608.409,410.219 607,411.5C 605.478,419.992 608.478,422.325 616,418.5C 618.515,413.482 617.015,410.149 611.5,408.5 Z"/></g>
<g><path style="opacity:0.071" fill="#19161a" d="M 292.5,350.5 C 292.389,351.117 292.056,351.617 291.5,352C 288.518,352.498 285.518,352.665 282.5,352.5C 273.43,350.598 267.763,345.098 265.5,336C 241.489,335.464 217.489,334.63 193.5,333.5C 191.752,328.919 188.752,325.419 184.5,323C 172.515,317.579 163.015,320.412 156,331.5C 152.053,343.676 155.553,352.842 166.5,359C 179.02,362.572 187.687,358.405 192.5,346.5C 205.5,346.5 218.5,346.5 231.5,346.5C 232.063,366.565 239.73,383.398 254.5,397C 264.184,397.832 273.851,397.665 283.5,396.5C 285.239,393.757 287.573,391.757 290.5,390.5C 295.915,389.604 300.582,390.937 304.5,394.5C 309.796,407.875 305.129,414.542 290.5,414.5C 287.755,413.263 285.422,411.43 283.5,409C 264.491,408.833 245.491,408.333 226.5,407.5C 218.133,393.546 207.133,391.046 193.5,400C 187.457,406.837 185.957,414.671 189,423.5C 195.249,433.611 204.083,436.778 215.5,433C 220.923,430.579 224.589,426.579 226.5,421C 237.495,420.5 248.495,420.333 259.5,420.5C 266.436,443.768 281.769,458.101 305.5,463.5C 314.524,466.504 323.858,467.171 333.5,465.5C 341.216,457.394 348.716,457.728 356,466.5C 358.145,480.355 352.312,486.188 338.5,484C 336.714,483.215 335.214,482.049 334,480.5C 338.548,498.999 350.048,511.166 368.5,517C 374.833,517.667 381.167,517.667 387.5,517C 394.604,514.305 398.437,509.138 399,501.5C 399.5,477.169 399.667,452.836 399.5,428.5C 400.832,440.648 401.499,453.148 401.5,466C 401.622,480.211 401.122,494.377 400,508.5C 395.32,516.796 388.154,520.463 378.5,519.5C 359.626,518.448 345.46,509.781 336,493.5C 333.748,489.36 332.415,485.027 332,480.5C 335.025,479.291 337.859,479.791 340.5,482C 351.141,482.694 355.308,477.861 353,467.5C 346.886,460.875 340.72,460.875 334.5,467.5C 308.529,471.013 286.695,463.346 269,444.5C 264.52,437.854 260.687,430.854 257.5,423.5C 247.851,422.335 238.184,422.168 228.5,423C 219.988,437.255 208.321,440.588 193.5,433C 184.449,423.62 183.116,413.12 189.5,401.5C 192.47,398.012 196.136,395.512 200.5,394C 213.189,390.942 222.523,395.109 228.5,406.5C 247.491,407.333 266.491,407.833 285.5,408C 291.188,413.775 297.022,413.941 303,408.5C 306.203,400.24 303.537,394.907 295,392.5C 290.788,392.684 287.622,394.518 285.5,398C 274.5,398.667 263.5,398.667 252.5,398C 238.821,385.14 231.154,369.307 229.5,350.5C 217.848,349.334 206.181,349.167 194.5,350C 186.328,363.05 175.328,366.05 161.5,359C 150.291,348.017 149.625,336.351 159.5,324C 169.783,316.659 179.95,316.825 190,324.5C 191.697,326.699 193.197,329.032 194.5,331.5C 218.14,332.992 241.806,333.826 265.5,334C 268.635,339.013 272.302,343.679 276.5,348C 281.561,350.259 286.895,351.092 292.5,350.5 Z M 172.5,334.5 C 171.312,335.364 170.145,336.364 169,337.5C 168.286,345.381 171.452,347.714 178.5,344.5C 180.996,338.347 178.996,335.014 172.5,334.5 Z"/></g>
<g><path style="opacity:0.071" fill="#1a191f" d="M 170.5,332.5 C 177.244,331.198 181.244,333.864 182.5,340.5C 181.243,347.299 177.243,349.799 170.5,348C 165.217,342.789 165.217,337.622 170.5,332.5 Z M 172.5,334.5 C 171.312,335.364 170.145,336.364 169,337.5C 168.286,345.381 171.452,347.714 178.5,344.5C 180.996,338.347 178.996,335.014 172.5,334.5 Z"/></g>
<g><path style="opacity:0.996" fill="#0b95af" d="M 290.5,414.5 C 290.343,415.873 290.51,417.207 291,418.5C 292.183,417.269 293.349,417.269 294.5,418.5C 295.641,419.425 295.641,420.259 294.5,421C 297.294,422.036 297.794,423.536 296,425.5C 294.829,422.962 293.329,422.462 291.5,424C 293.303,424.637 294.636,425.803 295.5,427.5C 297.881,425.902 299.048,423.568 299,420.5C 299.333,422.833 299.667,425.167 300,427.5C 300.915,426.672 301.581,425.672 302,424.5C 302.667,425.833 303.333,425.833 304,424.5C 304.5,425.5 305,426.5 305.5,427.5C 304.833,427.833 304.167,428.167 303.5,428.5C 307.311,429.738 307.311,430.404 303.5,430.5C 303.649,431.552 303.483,432.552 303,433.5C 302.1,432.23 300.934,431.23 299.5,430.5C 300.506,429.604 300.506,428.938 299.5,428.5C 298.691,431.628 297.191,434.294 295,436.5C 294.389,432.728 293.389,432.728 292,436.5C 291.667,434.5 291.333,432.5 291,430.5C 289.612,429.446 288.112,429.28 286.5,430C 287.766,430.309 288.933,430.809 290,431.5C 290.236,433.764 290.736,435.931 291.5,438C 293.126,437.805 294.793,437.805 296.5,438C 295.549,438.718 295.383,439.551 296,440.5C 297.518,440.943 298.685,440.276 299.5,438.5C 300.731,439.651 300.731,440.817 299.5,442C 301.991,442.626 301.991,443.459 299.5,444.5C 300.167,444.833 300.833,445.167 301.5,445.5C 300.624,446.251 299.624,446.751 298.5,447C 301.554,448.98 302.887,447.98 302.5,444C 300.701,440.763 301.201,437.93 304,435.5C 304.333,435.833 304.667,436.167 305,436.5C 304.08,430.16 305.247,429.993 308.5,436C 307.362,437.734 306.862,439.568 307,441.5C 308.049,440.483 309.216,440.316 310.5,441C 308.061,441.774 306.227,443.274 305,445.5C 304.346,444.304 303.846,444.304 303.5,445.5C 306.547,447.929 308.88,447.096 310.5,443C 312.433,442.217 313.933,442.717 315,444.5C 315.333,443.5 315.667,442.5 316,441.5C 316.333,441.833 316.667,442.167 317,442.5C 316.642,440.195 315.808,437.695 314.5,435C 315.332,434.312 315.998,434.479 316.5,435.5C 317.609,437.385 318.443,439.385 319,441.5C 319.286,439.001 319.119,436.835 318.5,435C 319.793,434.51 321.127,434.343 322.5,434.5C 322.5,433.5 322.5,432.5 322.5,431.5C 325.598,431.413 325.932,431.913 323.5,433C 325.421,433.36 327.088,434.194 328.5,435.5C 329.086,435.291 329.586,434.957 330,434.5C 329.566,436.176 328.732,437.843 327.5,439.5C 329.465,441.519 329.631,443.519 328,445.5C 327.64,443.392 326.973,441.392 326,439.5C 324.127,440.089 322.46,439.422 321,437.5C 320.973,441.041 319.806,444.041 317.5,446.5C 319.711,448.632 319.045,450.132 315.5,451C 316.956,451.423 317.456,452.256 317,453.5C 315.667,452.833 314.333,452.167 313,451.5C 312.915,449.915 312.749,448.582 312.5,447.5C 310.694,449.608 308.527,451.274 306,452.5C 305.346,451.304 304.846,451.304 304.5,452.5C 306.446,454.083 308.446,454.583 310.5,454C 309.833,454.667 309.167,455.333 308.5,456C 311.409,457.321 312.575,459.488 312,462.5C 311.333,459.833 310.667,459.833 310,462.5C 308.951,461.483 307.784,461.316 306.5,462C 308.932,463.087 308.598,463.587 305.5,463.5C 281.769,458.101 266.436,443.768 259.5,420.5C 248.495,420.333 237.495,420.5 226.5,421C 224.589,426.579 220.923,430.579 215.5,433C 204.083,436.778 195.249,433.611 189,423.5C 185.957,414.671 187.457,406.837 193.5,400C 207.133,391.046 218.133,393.546 226.5,407.5C 245.491,408.333 264.491,408.833 283.5,409C 285.422,411.43 287.755,413.263 290.5,414.5 Z M 204.5,409.5 C 209.429,408.305 212.429,410.138 213.5,415C 211.538,420.745 208.038,421.911 203,418.5C 201.082,415.09 201.582,412.09 204.5,409.5 Z"/></g>
<g><path style="opacity:0.106" fill="#1a151b" d="M 204.5,406.5 C 213.153,405.987 216.653,409.987 215,418.5C 207.636,425.759 202.136,424.426 198.5,414.5C 199.401,410.942 201.401,408.275 204.5,406.5 Z M 204.5,409.5 C 201.582,412.09 201.082,415.09 203,418.5C 208.038,421.911 211.538,420.745 213.5,415C 212.429,410.138 209.429,408.305 204.5,409.5 Z"/></g>
<g><path style="opacity:0.996" fill="#0b95af" d="M 327.5,428.5 C 351.5,428.5 375.5,428.5 399.5,428.5C 399.667,452.836 399.5,477.169 399,501.5C 398.437,509.138 394.604,514.305 387.5,517C 381.167,517.667 374.833,517.667 368.5,517C 350.048,511.166 338.548,498.999 334,480.5C 335.214,482.049 336.714,483.215 338.5,484C 352.312,486.188 358.145,480.355 356,466.5C 348.716,457.728 341.216,457.394 333.5,465.5C 323.858,467.171 314.524,466.504 305.5,463.5C 308.598,463.587 308.932,463.087 306.5,462C 307.784,461.316 308.951,461.483 310,462.5C 310.667,459.833 311.333,459.833 312,462.5C 312.575,459.488 311.409,457.321 308.5,456C 309.167,455.333 309.833,454.667 310.5,454C 308.446,454.583 306.446,454.083 304.5,452.5C 304.846,451.304 305.346,451.304 306,452.5C 308.527,451.274 310.694,449.608 312.5,447.5C 312.749,448.582 312.915,449.915 313,451.5C 314.333,452.167 315.667,452.833 317,453.5C 317.456,452.256 316.956,451.423 315.5,451C 319.045,450.132 319.711,448.632 317.5,446.5C 319.806,444.041 320.973,441.041 321,437.5C 322.46,439.422 324.127,440.089 326,439.5C 326.973,441.392 327.64,443.392 328,445.5C 329.631,443.519 329.465,441.519 327.5,439.5C 328.732,437.843 329.566,436.176 330,434.5C 329.586,434.957 329.086,435.291 328.5,435.5C 327.088,434.194 325.421,433.36 323.5,433C 325.932,431.913 325.598,431.413 322.5,431.5C 322.5,432.5 322.5,433.5 322.5,434.5C 321.127,434.343 319.793,434.51 318.5,435C 319.119,436.835 319.286,439.001 319,441.5C 318.443,439.385 317.609,437.385 316.5,435.5C 315.998,434.479 315.332,434.312 314.5,435C 315.808,437.695 316.642,440.195 317,442.5C 316.667,442.167 316.333,441.833 316,441.5C 315.667,442.5 315.333,443.5 315,444.5C 313.933,442.717 312.433,442.217 310.5,443C 308.88,447.096 306.547,447.929 303.5,445.5C 303.846,444.304 304.346,444.304 305,445.5C 306.227,443.274 308.061,441.774 310.5,441C 309.216,440.316 308.049,440.483 307,441.5C 306.862,439.568 307.362,437.734 308.5,436C 305.247,429.993 304.08,430.16 305,436.5C 304.667,436.167 304.333,435.833 304,435.5C 301.201,437.93 300.701,440.763 302.5,444C 302.887,447.98 301.554,448.98 298.5,447C 299.624,446.751 300.624,446.251 301.5,445.5C 300.833,445.167 300.167,444.833 299.5,444.5C 301.991,443.459 301.991,442.626 299.5,442C 300.731,440.817 300.731,439.651 299.5,438.5C 298.685,440.276 297.518,440.943 296,440.5C 295.383,439.551 295.549,438.718 296.5,438C 294.793,437.805 293.126,437.805 291.5,438C 290.736,435.931 290.236,433.764 290,431.5C 288.933,430.809 287.766,430.309 286.5,430C 288.112,429.28 289.612,429.446 291,430.5C 291.333,432.5 291.667,434.5 292,436.5C 293.389,432.728 294.389,432.728 295,436.5C 297.191,434.294 298.691,431.628 299.5,428.5C 300.506,428.938 300.506,429.604 299.5,430.5C 300.934,431.23 302.1,432.23 303,433.5C 303.483,432.552 303.649,431.552 303.5,430.5C 307.311,430.404 307.311,429.738 303.5,428.5C 304.167,428.167 304.833,427.833 305.5,427.5C 305,426.5 304.5,425.5 304,424.5C 303.333,425.833 302.667,425.833 302,424.5C 301.581,425.672 300.915,426.672 300,427.5C 299.667,425.167 299.333,422.833 299,420.5C 299.048,423.568 297.881,425.902 295.5,427.5C 294.636,425.803 293.303,424.637 291.5,424C 293.329,422.462 294.829,422.962 296,425.5C 297.794,423.536 297.294,422.036 294.5,421C 295.641,420.259 295.641,419.425 294.5,418.5C 293.349,417.269 292.183,417.269 291,418.5C 290.51,417.207 290.343,415.873 290.5,414.5C 305.129,414.542 309.796,407.875 304.5,394.5C 304.5,393.5 304.5,392.5 304.5,391.5C 306.144,391.286 307.644,391.62 309,392.5C 309.333,391.5 309.667,390.5 310,389.5C 310.333,389.833 310.667,390.167 311,390.5C 311.49,389.207 311.657,387.873 311.5,386.5C 313.201,386.034 314.701,386.034 316,386.5C 317.31,384.868 317.81,383.201 317.5,381.5C 318.287,382.242 318.953,383.075 319.5,384C 317.355,387.312 314.688,390.146 311.5,392.5C 312.909,392.654 314.576,392.821 316.5,393C 313.237,393.869 312.904,395.203 315.5,397C 313.668,398.489 312.835,400.322 313,402.5C 313.333,402.167 313.667,401.833 314,401.5C 315.996,401.996 317.663,402.996 319,404.5C 320.316,401.972 321.483,401.972 322.5,404.5C 324.069,403.286 324.902,401.619 325,399.5C 325.167,401.833 325.333,404.167 325.5,406.5C 325.426,409.287 324.76,411.787 323.5,414C 324.428,414.388 325.095,415.055 325.5,416C 324.362,418.045 322.695,418.712 320.5,418C 321.516,417.481 322.182,416.647 322.5,415.5C 321.388,413.61 320.554,411.61 320,409.5C 319.149,412.612 317.983,412.946 316.5,410.5C 316.163,412.425 314.83,413.925 312.5,415C 314.055,416.646 315.721,416.979 317.5,416C 316.663,417.011 316.33,418.178 316.5,419.5C 315.022,419.238 313.689,419.571 312.5,420.5C 313.274,421.711 314.107,421.711 315,420.5C 315.671,424.092 315.338,427.426 314,430.5C 315.529,429.271 316.696,427.771 317.5,426C 316.167,424.16 316.334,423.66 318,424.5C 319.779,422.983 319.279,422.149 316.5,422C 318.515,421.576 320.349,420.742 322,419.5C 323.646,421.141 324.646,420.807 325,418.5C 325.72,420.112 325.554,421.612 324.5,423C 325.249,424.734 325.749,426.567 326,428.5C 326.69,429.738 327.19,429.738 327.5,428.5 Z"/></g>
<g><path style="opacity:0.09" fill="#18151f" d="M 621.5,395.5 C 630.328,399.137 634.661,405.803 634.5,415.5C 633.477,429.355 625.977,436.689 612,437.5C 601.902,437.077 594.736,432.244 590.5,423C 580.506,422.5 570.506,422.334 560.5,422.5C 553.628,447.206 537.628,462.039 512.5,467C 503.228,468.728 493.895,469.394 484.5,469C 480.244,462.283 474.577,460.783 467.5,464.5C 461.926,471.039 462.592,476.872 469.5,482C 474.338,482.999 478.838,482.166 483,479.5C 484.947,480.044 485.78,481.377 485.5,483.5C 477.167,508.314 459.834,520.48 433.5,520C 424.007,518.339 418.34,512.839 416.5,503.5C 417.268,504.263 417.768,505.263 418,506.5C 418.464,505.906 418.631,505.239 418.5,504.5C 419.6,506.277 420.434,508.277 421,510.5C 421.708,511.381 422.542,512.047 423.5,512.5C 425.578,515.051 428.244,516.884 431.5,518C 444.45,519.846 456.116,516.846 466.5,509C 475.926,501.826 481.593,492.66 483.5,481.5C 482.3,482.531 480.966,483.365 479.5,484C 465.667,486.167 459.833,480.333 462,466.5C 467.569,459.181 474.402,457.681 482.5,462C 483.755,464.705 485.755,466.538 488.5,467.5C 496.132,466.403 503.799,465.57 511.5,465C 536.441,460.058 552.441,445.391 559.5,421C 570.5,420.333 581.5,420.333 592.5,421C 594.663,426.004 597.996,430.004 602.5,433C 615.834,437.564 625.668,433.731 632,421.5C 634.279,410.405 630.779,401.738 621.5,395.5 Z"/></g>
<g><path style="opacity:0.898" fill="#ef8936" d="M 456.5,428.5 C 458.167,428.5 459.833,428.5 461.5,428.5C 447.677,429.496 433.677,429.829 419.5,429.5C 419.333,454.169 419.5,478.836 420,503.5C 420.889,506.676 422.055,509.676 423.5,512.5C 422.542,512.047 421.708,511.381 421,510.5C 420.434,508.277 419.6,506.277 418.5,504.5C 418.5,479.167 418.5,453.833 418.5,428.5C 431.167,428.5 443.833,428.5 456.5,428.5 Z"/></g>
<g><path style="opacity:0.431" fill="#070c23" d="M 456.5,427.5 C 456.5,427.833 456.5,428.167 456.5,428.5C 443.833,428.5 431.167,428.5 418.5,428.5C 418.5,453.833 418.5,479.167 418.5,504.5C 418.631,505.239 418.464,505.906 418,506.5C 417.768,505.263 417.268,504.263 416.5,503.5C 415.325,478.511 415.492,453.511 417,428.5C 430.087,427.511 443.254,427.177 456.5,427.5 Z"/></g>
<g><path style="opacity:0.009" fill="#130c12" d="M 214.5,578.5 C 214.81,575.287 214.477,572.287 213.5,569.5C 200.833,569.5 188.167,569.5 175.5,569.5C 175.5,572.167 175.5,574.833 175.5,577.5C 179.97,578.486 184.637,578.819 189.5,578.5C 189.5,592.5 189.5,606.5 189.5,620.5C 188.504,607.344 188.171,594.01 188.5,580.5C 184.154,580.666 179.821,580.499 175.5,580C 173.972,578.352 173.305,576.352 173.5,574C 173.305,571.648 173.972,569.648 175.5,568C 188.5,567.333 201.5,567.333 214.5,568C 215.167,569.333 215.833,570.667 216.5,572C 215.289,573.113 215.289,574.28 216.5,575.5C 216.058,576.739 215.391,577.739 214.5,578.5 Z"/></g>
<g><path style="opacity:0.015" fill="#0c0a0d" d="M 353.5,578.5 C 353.5,575.5 353.5,572.5 353.5,569.5C 340.5,569.5 327.5,569.5 314.5,569.5C 313.523,572.287 313.19,575.287 313.5,578.5C 310.981,575.144 310.981,571.644 313.5,568C 326.833,567.333 340.167,567.333 353.5,568C 354.82,571.601 354.82,575.101 353.5,578.5 Z"/></g>
<g><path style="opacity:0.118" fill="#121b1f" d="M 254.5,578.5 C 254.167,578.5 253.833,578.5 253.5,578.5C 253.5,575.5 253.5,572.5 253.5,569.5C 242.833,569.5 232.167,569.5 221.5,569.5C 221.5,586.167 221.5,602.833 221.5,619.5C 221.5,619.833 221.5,620.167 221.5,620.5C 221.167,620.5 220.833,620.5 220.5,620.5C 219.349,603.574 219.182,586.574 220,569.5C 220.5,569 221,568.5 221.5,568C 232.167,567.333 242.833,567.333 253.5,568C 256.946,571.342 257.279,574.842 254.5,578.5 Z"/></g>
<g><path style="opacity:0.157" fill="#19141f" d="M 690.5,620.5 C 681.511,624.837 676.178,622.004 674.5,612C 668.472,611.17 662.472,611.336 656.5,612.5C 654.985,614.547 654.151,616.881 654,619.5C 650.319,622.36 646.152,623.193 641.5,622C 639.604,620.192 639.104,618.025 640,615.5C 646.309,599.569 652.809,583.736 659.5,568C 663.5,567.333 667.5,567.333 671.5,568C 679.049,584.481 685.716,601.314 691.5,618.5C 691.457,619.416 691.124,620.083 690.5,620.5 Z M 665.5,589.5 C 667.472,592.084 668.472,595.084 668.5,598.5C 666.076,598.808 663.743,598.474 661.5,597.5C 662.654,594.68 663.987,592.014 665.5,589.5 Z"/></g>
<g><path style="opacity:0.008" fill="#0d0d13" d="M 565.5,569.5 C 565.167,569.5 564.833,569.5 564.5,569.5C 553.833,569.5 543.167,569.5 532.5,569.5C 531.82,586.402 531.153,603.402 530.5,620.5C 529.338,603.672 529.172,586.672 530,569.5C 530.5,569 531,568.5 531.5,568C 542.5,567.333 553.5,567.333 564.5,568C 565.056,568.383 565.389,568.883 565.5,569.5 Z"/></g>
<g><path style="opacity:0.996" fill="#0c9ab5" d="M 213.5,569.5 C 213.5,572.167 213.5,574.833 213.5,577.5C 208.5,577.5 203.5,577.5 198.5,577.5C 198.171,591.344 198.504,605.01 199.5,618.5C 199.5,618.833 199.5,619.167 199.5,619.5C 196.5,619.5 193.5,619.5 190.5,619.5C 190.5,605.5 190.5,591.5 190.5,577.5C 185.5,577.5 180.5,577.5 175.5,577.5C 175.5,574.833 175.5,572.167 175.5,569.5C 188.167,569.5 200.833,569.5 213.5,569.5 Z"/></g>
<g><path style="opacity:0.996" fill="#0d99b4" d="M 253.5,578.5 C 245.833,578.5 238.167,578.5 230.5,578.5C 230.5,582.5 230.5,586.5 230.5,590.5C 237.833,590.5 245.167,590.5 252.5,590.5C 252.5,593.167 252.5,595.833 252.5,598.5C 245.167,598.5 237.833,598.5 230.5,598.5C 230.5,602.833 230.5,607.167 230.5,611.5C 238.167,611.5 245.833,611.5 253.5,611.5C 253.5,614.167 253.5,616.833 253.5,619.5C 242.833,619.5 232.167,619.5 221.5,619.5C 221.5,602.833 221.5,586.167 221.5,569.5C 232.167,569.5 242.833,569.5 253.5,569.5C 253.5,572.5 253.5,575.5 253.5,578.5 Z"/></g>
<g><path style="opacity:0.125" fill="#16161b" d="M 522.5,599.5 C 519.811,596.303 516.477,593.803 512.5,592C 506.597,591.144 500.931,589.477 495.5,587C 492.833,584.333 492.833,581.667 495.5,579C 502.856,575.784 508.856,577.284 513.5,583.5C 515.943,581.945 518.61,581.278 521.5,581.5C 520.156,575.986 516.823,572.153 511.5,570C 499.48,565.455 490.314,568.622 484,579.5C 482.492,588.314 485.992,594.147 494.5,597C 500.4,597.892 506.067,599.558 511.5,602C 513.19,605.525 512.524,608.525 509.5,611C 505.167,611.667 500.833,611.667 496.5,611C 494.326,609.465 492.493,607.632 491,605.5C 488.371,606.209 485.871,607.209 483.5,608.5C 487.111,616.806 493.444,620.806 502.5,620.5C 511.45,621.359 518.117,618.025 522.5,610.5C 521.586,615.258 518.919,618.758 514.5,621C 506.037,623.247 497.704,622.913 489.5,620C 485.321,617.826 482.654,614.493 481.5,610C 482.521,605.976 485.188,604.142 489.5,604.5C 490.833,604.667 492.167,604.833 493.5,605C 497.96,609.872 503.127,610.705 509,607.5C 509.72,605.888 509.554,604.388 508.5,603C 501.349,601.129 494.349,598.795 487.5,596C 480.987,589.71 479.821,582.543 484,574.5C 488.737,569.138 494.737,566.471 502,566.5C 509.201,566.031 515.201,568.364 520,573.5C 524.324,580.502 522.324,584.502 514,585.5C 510.568,583.068 506.902,581.068 503,579.5C 500.815,579.921 498.649,580.421 496.5,581C 495.11,583.994 496.11,585.994 499.5,587C 506.172,588.128 512.506,590.128 518.5,593C 520.923,594.571 522.256,596.737 522.5,599.5 Z"/></g>
<g><path style="opacity:0.54" fill="#165261" d="M 564.5,569.5 C 564.833,569.5 565.167,569.5 565.5,569.5C 566.833,572.5 566.833,575.5 565.5,578.5C 557.5,578.5 549.5,578.5 541.5,578.5C 548.982,577.508 556.648,577.175 564.5,577.5C 564.5,574.833 564.5,572.167 564.5,569.5 Z"/></g>
<g><path style="opacity:0.122" fill="#1b060b" d="M 462.5,573.5 C 464.794,576.37 466.128,579.703 466.5,583.5C 464.085,580.66 462.752,577.327 462.5,573.5 Z"/></g>
<g><path style="opacity:0.996" fill="#0e95af" d="M 314.5,569.5 C 327.5,569.5 340.5,569.5 353.5,569.5C 353.5,572.5 353.5,575.5 353.5,578.5C 348.5,578.5 343.5,578.5 338.5,578.5C 338.5,592.167 338.5,605.833 338.5,619.5C 335.5,619.5 332.5,619.5 329.5,619.5C 329.5,605.5 329.5,591.5 329.5,577.5C 324.5,577.5 319.5,577.5 314.5,577.5C 314.5,574.833 314.5,572.167 314.5,569.5 Z"/></g>
<g><path style="opacity:0.012" fill="#120e13" d="M 386.5,567.5 C 395.839,567.334 405.173,567.5 414.5,568C 424.356,570.872 428.189,577.372 426,587.5C 425.117,590.102 423.617,592.269 421.5,594C 427.181,599.384 428.681,605.884 426,613.5C 421.841,618.785 416.341,621.619 409.5,622C 402.167,622.667 394.833,622.667 387.5,622C 386.584,621.626 385.75,621.126 385,620.5C 384.833,611.833 384.667,603.167 384.5,594.5C 384.528,585.27 385.195,576.27 386.5,567.5 Z M 398.5,600.5 C 402.846,600.334 407.179,600.501 411.5,601C 414.462,604.488 413.795,607.155 409.5,609C 405.848,609.499 402.182,609.665 398.5,609.5C 398.5,606.5 398.5,603.5 398.5,600.5 Z M 398.5,580.5 C 402.846,580.334 407.179,580.501 411.5,581C 413.133,584.417 412.133,586.75 408.5,588C 405.183,588.498 401.85,588.665 398.5,588.5C 398.5,585.833 398.5,583.167 398.5,580.5 Z"/></g>
<g><path style="opacity:0.12" fill="#1b131c" d="M 253.5,578.5 C 253.833,578.5 254.167,578.5 254.5,578.5C 254.389,579.117 254.056,579.617 253.5,580C 246.508,580.5 239.508,580.666 232.5,580.5C 232.232,583.119 232.565,585.619 233.5,588C 239.5,588.333 245.5,588.667 251.5,589C 253.815,590.296 254.815,592.296 254.5,595C 254.646,597.034 253.98,598.701 252.5,600C 245.842,600.5 239.175,600.666 232.5,600.5C 232.02,603.685 232.686,606.519 234.5,609C 240.833,609.333 247.167,609.667 253.5,610C 254.056,610.383 254.389,610.883 254.5,611.5C 254.167,611.5 253.833,611.5 253.5,611.5C 245.833,611.5 238.167,611.5 230.5,611.5C 230.5,607.167 230.5,602.833 230.5,598.5C 237.833,598.5 245.167,598.5 252.5,598.5C 252.5,595.833 252.5,593.167 252.5,590.5C 245.167,590.5 237.833,590.5 230.5,590.5C 230.5,586.5 230.5,582.5 230.5,578.5C 238.167,578.5 245.833,578.5 253.5,578.5 Z"/></g>
<g><path style="opacity:0.996" fill="#1195af" d="M 522.5,599.5 C 523.833,603.167 523.833,606.833 522.5,610.5C 518.117,618.025 511.45,621.359 502.5,620.5C 493.444,620.806 487.111,616.806 483.5,608.5C 485.871,607.209 488.371,606.209 491,605.5C 492.493,607.632 494.326,609.465 496.5,611C 500.833,611.667 505.167,611.667 509.5,611C 512.524,608.525 513.19,605.525 511.5,602C 506.067,599.558 500.4,597.892 494.5,597C 485.992,594.147 482.492,588.314 484,579.5C 490.314,568.622 499.48,565.455 511.5,570C 516.823,572.153 520.156,575.986 521.5,581.5C 518.61,581.278 515.943,581.945 513.5,583.5C 508.856,577.284 502.856,575.784 495.5,579C 492.833,581.667 492.833,584.333 495.5,587C 500.931,589.477 506.597,591.144 512.5,592C 516.477,593.803 519.811,596.303 522.5,599.5 Z"/></g>
<g><path style="opacity:0.006" fill="#141216" d="M 575.5,567.5 C 583.84,567.334 592.173,567.5 600.5,568C 611.561,570.061 618.394,576.561 621,587.5C 623.791,608.129 614.958,619.629 594.5,622C 588.5,622.667 582.5,622.667 576.5,622C 574.292,621.064 572.958,619.398 572.5,617C 572.937,612.782 572.937,608.449 572.5,604C 573.322,592.576 573.822,581.076 574,569.5C 574.717,568.956 575.217,568.289 575.5,567.5 Z M 587.5,579.5 C 604.026,579.257 609.86,586.924 605,602.5C 600.038,607.952 593.871,609.952 586.5,608.5C 586.194,598.75 586.527,589.084 587.5,579.5 Z"/></g>
<g><path style="opacity:0.996" fill="#0e96b1" d="M 575.5,569.5 C 584.173,569.334 592.84,569.5 601.5,570C 613.862,573.524 619.862,581.691 619.5,594.5C 619.177,608.993 611.844,617.493 597.5,620C 590.174,620.5 582.841,620.666 575.5,620.5C 575.5,603.5 575.5,586.5 575.5,569.5 Z M 587.5,579.5 C 586.527,589.084 586.194,598.75 586.5,608.5C 593.871,609.952 600.038,607.952 605,602.5C 609.86,586.924 604.026,579.257 587.5,579.5 Z"/></g>
<g><path style="opacity:0.229" fill="#131525" d="M 708.5,569.5 C 708.167,569.5 707.833,569.5 707.5,569.5C 704.833,569.5 702.167,569.5 699.5,569.5C 698.503,586.325 698.17,603.325 698.5,620.5C 701.833,620.5 705.167,620.5 708.5,620.5C 704.775,623.147 700.942,623.147 697,620.5C 696.333,603.5 696.333,586.5 697,569.5C 700.183,567.477 703.683,566.977 707.5,568C 708.056,568.383 708.389,568.883 708.5,569.5 Z"/></g>
<g><path style="opacity:0.153" fill="#1a151b" d="M 274.5,620.5 C 274.333,609.495 274.5,598.495 275,587.5C 282.305,598.305 289.805,608.972 297.5,619.5C 300.428,620.484 303.428,620.817 306.5,620.5C 306.5,603.5 306.5,586.5 306.5,569.5C 303.5,569.5 300.5,569.5 297.5,569.5C 296.833,580.167 296.167,590.833 295.5,601.5C 288.3,590.942 280.966,580.442 273.5,570C 270.518,569.502 267.518,569.335 264.5,569.5C 264.5,586.5 264.5,603.5 264.5,620.5C 263.751,619.469 263.085,618.302 262.5,617C 262.5,602 262.5,587 262.5,572C 263,568.173 265.167,566.673 269,567.5C 272.2,567.147 274.867,568.147 277,570.5C 283.003,579.205 289.003,587.872 295,596.5C 295.333,587.167 295.667,577.833 296,568.5C 297.738,567.873 299.571,567.54 301.5,567.5C 304.011,567.288 306.178,567.955 308,569.5C 308.667,586.5 308.667,603.5 308,620.5C 304.353,622.994 300.519,623.16 296.5,621C 290,611.833 283.5,602.667 277,593.5C 275.889,602.576 275.056,611.576 274.5,620.5 Z"/></g>
<g><path style="opacity:0.995" fill="#f27430" d="M 689.5,618.5 C 686.713,619.477 683.713,619.81 680.5,619.5C 678.648,616.449 677.314,613.116 676.5,609.5C 669.492,609.334 662.492,609.5 655.5,610C 654.167,613.333 652.833,616.667 651.5,620C 648.183,620.498 644.85,620.665 641.5,620.5C 647.375,603.746 653.541,587.079 660,570.5C 663.786,569.205 667.62,569.205 671.5,570.5C 678.076,586.312 684.076,602.312 689.5,618.5 Z M 665.5,589.5 C 663.987,592.014 662.654,594.68 661.5,597.5C 663.743,598.474 666.076,598.808 668.5,598.5C 668.472,595.084 667.472,592.084 665.5,589.5 Z"/></g>
<g><path style="opacity:0.059" fill="#1e0d16" d="M 313.5,578.5 C 318.5,578.5 323.5,578.5 328.5,578.5C 328.5,592.5 328.5,606.5 328.5,620.5C 327.504,607.344 327.171,594.01 327.5,580.5C 323.154,580.666 318.821,580.499 314.5,580C 313.944,579.617 313.611,579.117 313.5,578.5 Z"/></g>
<g><path style="opacity:0.243" fill="#1b1b1e" d="M 541.5,578.5 C 549.5,578.5 557.5,578.5 565.5,578.5C 565.389,579.117 565.056,579.617 564.5,580C 557.476,580.169 550.476,580.669 543.5,581.5C 542.22,583.702 542.22,585.868 543.5,588C 550.167,588.333 556.833,588.667 563.5,589C 565.757,592.238 566.09,595.738 564.5,599.5C 557.532,600.497 550.532,600.83 543.5,600.5C 542.908,603.127 542.575,605.794 542.5,608.5C 550.162,608.096 557.829,608.596 565.5,610C 566.82,613.601 566.82,617.101 565.5,620.5C 565.81,617.287 565.477,614.287 564.5,611.5C 556.833,611.5 549.167,611.5 541.5,611.5C 541.5,607.167 541.5,602.833 541.5,598.5C 548.833,598.5 556.167,598.5 563.5,598.5C 563.5,595.833 563.5,593.167 563.5,590.5C 556.167,590.5 548.833,590.5 541.5,590.5C 541.5,586.5 541.5,582.5 541.5,578.5 Z"/></g>
<g><path style="opacity:0.472" fill="#144d5c" d="M 532.5,569.5 C 532.5,586.167 532.5,602.833 532.5,619.5C 543.167,619.5 553.833,619.5 564.5,619.5C 564.5,616.833 564.5,614.167 564.5,611.5C 565.477,614.287 565.81,617.287 565.5,620.5C 553.988,620.172 542.654,620.505 531.5,621.5C 530.833,621.5 530.5,621.167 530.5,620.5C 531.153,603.402 531.82,586.402 532.5,569.5 Z"/></g>
<g><path style="opacity:0.55" fill="#117b91" d="M 213.5,569.5 C 214.477,572.287 214.81,575.287 214.5,578.5C 209.5,578.5 204.5,578.5 199.5,578.5C 199.5,591.833 199.5,605.167 199.5,618.5C 198.504,605.01 198.171,591.344 198.5,577.5C 203.5,577.5 208.5,577.5 213.5,577.5C 213.5,574.833 213.5,572.167 213.5,569.5 Z"/></g>
<g><path style="opacity:0.99" fill="#0d9bb6" d="M 532.5,569.5 C 543.167,569.5 553.833,569.5 564.5,569.5C 564.5,572.167 564.5,574.833 564.5,577.5C 556.648,577.175 548.982,577.508 541.5,578.5C 541.5,582.5 541.5,586.5 541.5,590.5C 548.833,590.5 556.167,590.5 563.5,590.5C 563.5,593.167 563.5,595.833 563.5,598.5C 556.167,598.5 548.833,598.5 541.5,598.5C 541.5,602.833 541.5,607.167 541.5,611.5C 549.167,611.5 556.833,611.5 564.5,611.5C 564.5,614.167 564.5,616.833 564.5,619.5C 553.833,619.5 543.167,619.5 532.5,619.5C 532.5,602.833 532.5,586.167 532.5,569.5 Z"/></g>
<g><path style="opacity:0.39" fill="#213942" d="M 377.5,592.5 C 377.5,592.833 377.5,593.167 377.5,593.5C 370.167,593.5 362.833,593.5 355.5,593.5C 355.5,593.167 355.5,592.833 355.5,592.5C 362.833,591.167 370.167,591.167 377.5,592.5 Z"/></g>
<g><path style="opacity:0.006" fill="#161317" d="M 466.5,583.5 C 471.936,594.799 476.603,606.465 480.5,618.5C 480.457,619.416 480.124,620.083 479.5,620.5C 475.635,609.702 471.469,599.035 467,588.5C 466.506,586.866 466.34,585.199 466.5,583.5 Z"/></g>
<g><path style="opacity:0.008" fill="#1b161f" d="M 672.5,599.5 C 668.167,600.833 663.833,600.833 659.5,599.5C 660.802,593.222 662.968,587.222 666,581.5C 668.274,587.49 670.44,593.49 672.5,599.5 Z M 665.5,589.5 C 663.987,592.014 662.654,594.68 661.5,597.5C 663.743,598.474 666.076,598.808 668.5,598.5C 668.472,595.084 667.472,592.084 665.5,589.5 Z"/></g>
<g><path style="opacity:0.26" fill="#181315" d="M 124.5,620.5 C 128.042,620.813 131.375,620.479 134.5,619.5C 134.333,608.162 134.5,596.828 135,585.5C 142.587,597.007 150.42,608.341 158.5,619.5C 161.428,620.484 164.428,620.817 167.5,620.5C 167.5,603.5 167.5,586.5 167.5,569.5C 164.5,569.5 161.5,569.5 158.5,569.5C 157.833,580.167 157.167,590.833 156.5,601.5C 149.422,591.02 142.089,580.687 134.5,570.5C 131.572,569.516 128.572,569.183 125.5,569.5C 125.167,569.5 124.833,569.5 124.5,569.5C 124.611,568.883 124.944,568.383 125.5,568C 128.5,567.333 131.5,567.333 134.5,568C 142.051,577.217 149.218,586.717 156,596.5C 156.333,587.167 156.667,577.833 157,568.5C 160.409,567.378 163.909,567.211 167.5,568C 169.373,570.113 170.373,572.613 170.5,575.5C 169.267,588.041 169.267,600.708 170.5,613.5C 170.141,622.46 165.808,624.96 157.5,621C 150.878,612.256 144.378,603.422 138,594.5C 136.79,603.106 136.123,611.773 136,620.5C 134.527,622.007 132.693,622.674 130.5,622.5C 128.117,622.639 126.117,621.972 124.5,620.5 Z"/></g>
<g><path style="opacity:0.378" fill="#125d70" d="M 314.5,569.5 C 314.5,572.167 314.5,574.833 314.5,577.5C 319.5,577.5 324.5,577.5 329.5,577.5C 329.5,591.5 329.5,605.5 329.5,619.5C 332.5,619.5 335.5,619.5 338.5,619.5C 335.375,620.479 332.042,620.813 328.5,620.5C 328.5,606.5 328.5,592.5 328.5,578.5C 323.5,578.5 318.5,578.5 313.5,578.5C 313.19,575.287 313.523,572.287 314.5,569.5 Z"/></g>
<g><path style="opacity:0.996" fill="#0d97b2" d="M 355.5,593.5 C 362.833,593.5 370.167,593.5 377.5,593.5C 377.5,596.167 377.5,598.833 377.5,601.5C 370.167,601.5 362.833,601.5 355.5,601.5C 355.5,598.833 355.5,596.167 355.5,593.5 Z"/></g>
<g><path style="opacity:0.112" fill="#131418" d="M 114.5,620.5 C 111.863,622.427 108.863,622.927 105.5,622C 104.151,621.228 103.318,620.061 103,618.5C 103.307,603.211 103.141,587.711 102.5,572C 103.167,570.667 103.833,569.333 104.5,568C 107.5,567.333 110.5,567.333 113.5,568C 114.849,568.772 115.682,569.939 116,571.5C 116.667,586.167 116.667,600.833 116,615.5C 115.802,617.382 115.302,619.048 114.5,620.5 Z"/></g>
<g><path style="opacity:0.993" fill="#0e97b2" d="M 113.5,569.5 C 113.5,586.167 113.5,602.833 113.5,619.5C 110.5,619.5 107.5,619.5 104.5,619.5C 104.5,602.833 104.5,586.167 104.5,569.5C 107.5,569.5 110.5,569.5 113.5,569.5 Z"/></g>
<g><path style="opacity:0.429" fill="#136375" d="M 113.5,569.5 C 114.497,586.325 114.83,603.325 114.5,620.5C 110.958,620.813 107.625,620.479 104.5,619.5C 107.5,619.5 110.5,619.5 113.5,619.5C 113.5,602.833 113.5,586.167 113.5,569.5 Z"/></g>
<g><path style="opacity:0.129" fill="#140e12" d="M 355.5,592.5 C 355.5,592.833 355.5,593.167 355.5,593.5C 355.5,596.167 355.5,598.833 355.5,601.5C 354.252,600.666 353.585,599.333 353.5,597.5C 353.667,596.167 353.833,594.833 354,593.5C 354.383,592.944 354.883,592.611 355.5,592.5 Z"/></g>
<g><path style="opacity:0.191" fill="#1b121d" d="M 353.5,578.5 C 353.389,579.117 353.056,579.617 352.5,580C 348.514,580.499 344.514,580.666 340.5,580.5C 340.667,593.837 340.5,607.171 340,620.5C 336.817,622.523 333.317,623.023 329.5,622C 328.944,621.617 328.611,621.117 328.5,620.5C 332.042,620.813 335.375,620.479 338.5,619.5C 338.5,605.833 338.5,592.167 338.5,578.5C 343.5,578.5 348.5,578.5 353.5,578.5 Z"/></g>
<g><path style="opacity:0.365" fill="#62362c" d="M 659.5,599.5 C 663.833,600.833 668.167,600.833 672.5,599.5C 673.043,599.56 673.376,599.893 673.5,600.5C 668.5,601.833 663.5,601.833 658.5,600.5C 658.624,599.893 658.957,599.56 659.5,599.5 Z"/></g>
<g><path style="opacity:0.11" fill="#191217" d="M 377.5,592.5 C 378.479,595.625 378.813,598.958 378.5,602.5C 370.648,602.825 362.982,602.492 355.5,601.5C 362.833,601.5 370.167,601.5 377.5,601.5C 377.5,598.833 377.5,596.167 377.5,593.5C 377.5,593.167 377.5,592.833 377.5,592.5 Z"/></g>
<g><path style="opacity:0.302" fill="#126074" d="M 596.5,578.5 C 592.833,578.5 589.167,578.5 585.5,578.5C 585.5,589.5 585.5,600.5 585.5,611.5C 584.505,600.346 584.172,589.012 584.5,577.5C 588.702,577.183 592.702,577.517 596.5,578.5 Z"/></g>
<g><path style="opacity:0.365" fill="#117288" d="M 175.5,577.5 C 180.5,577.5 185.5,577.5 190.5,577.5C 190.5,591.5 190.5,605.5 190.5,619.5C 193.5,619.5 196.5,619.5 199.5,619.5C 196.375,620.479 193.042,620.813 189.5,620.5C 189.5,606.5 189.5,592.5 189.5,578.5C 184.637,578.819 179.97,578.486 175.5,577.5 Z"/></g>
<g><path style="opacity:0.198" fill="#1b111e" d="M 214.5,578.5 C 214.389,579.117 214.056,579.617 213.5,580C 209.514,580.499 205.514,580.666 201.5,580.5C 201.667,593.504 201.5,606.504 201,619.5C 199.704,621.815 197.704,622.815 195,622.5C 192.779,622.607 190.946,621.94 189.5,620.5C 193.042,620.813 196.375,620.479 199.5,619.5C 199.5,619.167 199.5,618.833 199.5,618.5C 199.5,605.167 199.5,591.833 199.5,578.5C 204.5,578.5 209.5,578.5 214.5,578.5 Z"/></g>
<g><path style="opacity:0.996" fill="#0e96b0" d="M 462.5,573.5 C 462.752,577.327 464.085,580.66 466.5,583.5C 466.34,585.199 466.506,586.866 467,588.5C 471.469,599.035 475.635,609.702 479.5,620.5C 475.833,620.5 472.167,620.5 468.5,620.5C 467.793,616.752 466.793,613.086 465.5,609.5C 458.167,609.5 450.833,609.5 443.5,609.5C 442.516,612.812 441.516,616.145 440.5,619.5C 437.232,620.487 433.898,620.82 430.5,620.5C 436.191,603.747 442.191,587.081 448.5,570.5C 452.5,569.167 456.5,569.167 460.5,570.5C 460.942,571.739 461.609,572.739 462.5,573.5 Z M 453.5,587.5 C 455.725,590.812 457.392,594.478 458.5,598.5C 455.914,599.48 453.247,599.813 450.5,599.5C 451.488,595.515 452.488,591.515 453.5,587.5 Z"/></g>
<g><path style="opacity:0.122" fill="#181b21" d="M 453.5,580.5 C 454.497,580.47 455.164,580.97 455.5,582C 457.287,588.566 459.62,594.899 462.5,601C 457.511,601.499 452.511,601.666 447.5,601.5C 449.967,594.631 451.967,587.631 453.5,580.5 Z M 453.5,587.5 C 452.488,591.515 451.488,595.515 450.5,599.5C 453.247,599.813 455.914,599.48 458.5,598.5C 457.392,594.478 455.725,590.812 453.5,587.5 Z"/></g>
<g><path style="opacity:0.035" fill="#18161a" d="M 596.5,578.5 C 607.813,581.113 611.979,588.113 609,599.5C 606.856,606.637 602.022,610.471 594.5,611C 591.518,611.498 588.518,611.665 585.5,611.5C 585.5,600.5 585.5,589.5 585.5,578.5C 589.167,578.5 592.833,578.5 596.5,578.5 Z M 587.5,579.5 C 586.527,589.084 586.194,598.75 586.5,608.5C 593.871,609.952 600.038,607.952 605,602.5C 609.86,586.924 604.026,579.257 587.5,579.5 Z"/></g>
<g><path style="opacity:0.059" fill="#16161c" d="M 462.5,573.5 C 461.609,572.739 460.942,571.739 460.5,570.5C 456.5,569.167 452.5,569.167 448.5,570.5C 442.191,587.081 436.191,603.747 430.5,620.5C 433.898,620.82 437.232,620.487 440.5,619.5C 441.516,616.145 442.516,612.812 443.5,609.5C 450.833,609.5 458.167,609.5 465.5,609.5C 466.793,613.086 467.793,616.752 468.5,620.5C 472.167,620.5 475.833,620.5 479.5,620.5C 479.389,621.117 479.056,621.617 478.5,622C 475.5,622.667 472.5,622.667 469.5,622C 466.429,619.195 464.096,615.862 462.5,612C 456.833,611.333 451.167,611.333 445.5,612C 443.811,614.557 442.644,617.391 442,620.5C 437.601,623.106 433.267,623.106 429,620.5C 429.146,616.041 430.146,611.708 432,607.5C 437.122,594.937 442.122,582.271 447,569.5C 447.5,569 448,568.5 448.5,568C 453.229,567.004 457.729,567.504 462,569.5C 462.49,570.793 462.657,572.127 462.5,573.5 Z"/></g>
<g><path style="opacity:0.246" fill="#6c3830" d="M 699.5,569.5 C 699.5,586.167 699.5,602.833 699.5,619.5C 702.167,619.5 704.833,619.5 707.5,619.5C 707.5,602.833 707.5,586.167 707.5,569.5C 707.833,569.5 708.167,569.5 708.5,569.5C 709.833,586.5 709.833,603.5 708.5,620.5C 705.167,620.5 701.833,620.5 698.5,620.5C 698.17,603.325 698.503,586.325 699.5,569.5 Z"/></g>
<g><path style="opacity:0.661" fill="#f98c32" d="M 699.5,569.5 C 702.167,569.5 704.833,569.5 707.5,569.5C 707.5,586.167 707.5,602.833 707.5,619.5C 704.833,619.5 702.167,619.5 699.5,619.5C 699.5,602.833 699.5,586.167 699.5,569.5 Z"/></g>
<g><path style="opacity:0.995" fill="#f67230" d="M 700.5,570.5 C 702.5,570.5 704.5,570.5 706.5,570.5C 706.5,586.5 706.5,602.5 706.5,618.5C 704.5,618.5 702.5,618.5 700.5,618.5C 700.5,602.5 700.5,586.5 700.5,570.5 Z"/></g>
<g><path style="opacity:0.996" fill="#0d99b3" d="M 125.5,569.5 C 128.572,569.183 131.572,569.516 134.5,570.5C 142.089,580.687 149.422,591.02 156.5,601.5C 156.783,602.289 157.283,602.956 158,603.5C 158.5,592.172 158.667,580.838 158.5,569.5C 161.5,569.5 164.5,569.5 167.5,569.5C 167.5,586.5 167.5,603.5 167.5,620.5C 164.428,620.817 161.428,620.484 158.5,619.5C 150.42,608.341 142.587,597.007 135,585.5C 134.5,596.828 134.333,608.162 134.5,619.5C 131.5,619.5 128.5,619.5 125.5,619.5C 125.5,602.833 125.5,586.167 125.5,569.5 Z"/></g>
<g><path style="opacity:0.314" fill="#144f61" d="M 158.5,569.5 C 158.667,580.838 158.5,592.172 158,603.5C 157.283,602.956 156.783,602.289 156.5,601.5C 157.167,590.833 157.833,580.167 158.5,569.5 Z"/></g>
<g><path style="opacity:0.207" fill="#153d49" d="M 124.5,569.5 C 124.833,569.5 125.167,569.5 125.5,569.5C 125.5,586.167 125.5,602.833 125.5,619.5C 128.5,619.5 131.5,619.5 134.5,619.5C 131.375,620.479 128.042,620.813 124.5,620.5C 123.176,603.402 123.176,586.402 124.5,569.5 Z"/></g>
<g><path style="opacity:0.007" fill="#0d080b" d="M 254.5,611.5 C 256.026,612.492 256.693,613.992 256.5,616C 256.693,618.008 256.026,619.508 254.5,620.5C 254.5,617.5 254.5,614.5 254.5,611.5 Z"/></g>
<g><path style="opacity:0.996" fill="#0d96b0" d="M 295.5,601.5 C 295.783,602.289 296.283,602.956 297,603.5C 297.5,592.172 297.667,580.838 297.5,569.5C 300.5,569.5 303.5,569.5 306.5,569.5C 306.5,586.5 306.5,603.5 306.5,620.5C 303.428,620.817 300.428,620.484 297.5,619.5C 289.805,608.972 282.305,598.305 275,587.5C 274.5,598.495 274.333,609.495 274.5,620.5C 271.167,620.5 267.833,620.5 264.5,620.5C 264.5,603.5 264.5,586.5 264.5,569.5C 267.518,569.335 270.518,569.502 273.5,570C 280.966,580.442 288.3,590.942 295.5,601.5 Z"/></g>
<g><path style="opacity:0.38" fill="#125d6f" d="M 297.5,569.5 C 297.667,580.838 297.5,592.172 297,603.5C 296.283,602.956 295.783,602.289 295.5,601.5C 296.167,590.833 296.833,580.167 297.5,569.5 Z"/></g>
<g><path style="opacity:0.996" fill="#0d98b2" d="M 387.5,569.5 C 396.506,569.334 405.506,569.5 414.5,570C 427.398,576.055 428.731,584.055 418.5,594C 425.138,598.017 427.304,603.85 425,611.5C 421.845,616.332 417.345,618.998 411.5,619.5C 403.5,619.5 395.5,619.5 387.5,619.5C 387.5,602.833 387.5,586.167 387.5,569.5 Z M 398.5,600.5 C 398.5,603.5 398.5,606.5 398.5,609.5C 402.182,609.665 405.848,609.499 409.5,609C 413.795,607.155 414.462,604.488 411.5,601C 407.179,600.501 402.846,600.334 398.5,600.5 Z M 398.5,580.5 C 398.5,583.167 398.5,585.833 398.5,588.5C 401.85,588.665 405.183,588.498 408.5,588C 412.133,586.75 413.133,584.417 411.5,581C 407.179,580.501 402.846,580.334 398.5,580.5 Z"/></g>
<g><path style="opacity:0.09" fill="#1a1418" d="M 410.5,598.5 C 413.87,599.031 415.537,601.031 415.5,604.5C 415.674,606.693 415.007,608.527 413.5,610C 407.956,611.404 402.29,611.904 396.5,611.5C 396.5,607.167 396.5,602.833 396.5,598.5C 401.167,598.5 405.833,598.5 410.5,598.5 Z M 398.5,600.5 C 398.5,603.5 398.5,606.5 398.5,609.5C 402.182,609.665 405.848,609.499 409.5,609C 413.795,607.155 414.462,604.488 411.5,601C 407.179,600.501 402.846,600.334 398.5,600.5 Z"/></g>
<g><path style="opacity:0.446" fill="#106b7e" d="M 410.5,598.5 C 405.833,598.5 401.167,598.5 396.5,598.5C 396.5,602.833 396.5,607.167 396.5,611.5C 395.514,607.03 395.181,602.363 395.5,597.5C 400.695,597.179 405.695,597.513 410.5,598.5 Z"/></g>
<g><path style="opacity:0.114" fill="#181219" d="M 411.5,578.5 C 415.811,580.886 416.477,584.053 413.5,588C 408.068,590.205 402.402,591.038 396.5,590.5C 396.5,586.5 396.5,582.5 396.5,578.5C 401.5,578.5 406.5,578.5 411.5,578.5 Z M 398.5,580.5 C 398.5,583.167 398.5,585.833 398.5,588.5C 401.85,588.665 405.183,588.498 408.5,588C 412.133,586.75 413.133,584.417 411.5,581C 407.179,580.501 402.846,580.334 398.5,580.5 Z"/></g>
<g><path style="opacity:0.349" fill="#126173" d="M 411.5,578.5 C 406.5,578.5 401.5,578.5 396.5,578.5C 396.5,582.5 396.5,586.5 396.5,590.5C 395.515,586.366 395.182,582.032 395.5,577.5C 401.026,577.179 406.36,577.512 411.5,578.5 Z"/></g>
<g><path style="opacity:0.627" fill="#126173" d="M 387.5,569.5 C 387.5,586.167 387.5,602.833 387.5,619.5C 395.5,619.5 403.5,619.5 411.5,619.5C 403.35,620.493 395.017,620.826 386.5,620.5C 386.17,603.325 386.503,586.325 387.5,569.5 Z"/></g>
<g><path style="opacity:0.345" fill="#10697c" d="M 253.5,611.5 C 253.833,611.5 254.167,611.5 254.5,611.5C 254.5,614.5 254.5,617.5 254.5,620.5C 243.5,620.5 232.5,620.5 221.5,620.5C 221.5,620.167 221.5,619.833 221.5,619.5C 232.167,619.5 242.833,619.5 253.5,619.5C 253.5,616.833 253.5,614.167 253.5,611.5 Z"/></g>
<g><path style="opacity:0.333" fill="#79432e" d="M 689.5,618.5 C 690.338,618.842 690.672,619.508 690.5,620.5C 686.958,620.813 683.625,620.479 680.5,619.5C 683.713,619.81 686.713,619.477 689.5,618.5 Z"/></g>
<g><path style="opacity:0.047" fill="#0f000c" d="M 220.5,620.5 C 220.833,620.5 221.167,620.5 221.5,620.5C 232.5,620.5 243.5,620.5 254.5,620.5C 254.082,621.222 253.416,621.722 252.5,622C 249.333,622.167 246.167,622.333 243,622.5C 237.448,621.916 231.948,621.916 226.5,622.5C 224.201,622.401 222.201,621.734 220.5,620.5 Z"/></g>
<g><path style="opacity:0.004" fill="#0c0305" d="M 264.5,620.5 C 267.833,620.5 271.167,620.5 274.5,620.5C 271.167,623.167 267.833,623.167 264.5,620.5 Z"/></g>
<g><path style="opacity:0.004" fill="#0a0508" d="M 531.5,621.5 C 542.654,620.505 553.988,620.172 565.5,620.5C 565.082,621.222 564.416,621.722 563.5,622C 552.757,622.808 542.09,622.642 531.5,621.5 Z"/></g>
</svg>
